mtllib material.mtl
usemtl material_0
v 0.00624500 0.00107485 0.00488310
v 0.00624500 0.00209945 0.00453788
v 0.00624500 0.00302587 0.00398047
v 0.00624500 0.00329643 0.00372418
v 0.00624500 0.00249611 0.00429921
v 0.00624500 0.00381081 0.00323693
v 0.00624500 0.00441756 0.00234204
v 0.00624500 0.00423939 0.00260482
v 0.00624500 0.00481775 0.00133764
v 0.00624500 0.00447341 0.00220188
v 0.00624500 0.00499267 0.00027069
v 0.00624500 0.00494096 0.00058607
v 0.00624500 0.00493413 -0.00080891
v 0.00624500 0.00464488 -0.00185069
v 0.00624500 0.00423688 -0.00262027
v 0.00624500 0.00486687 -0.00105116
v 0.00624500 0.00413844 -0.00280594
v 0.00624500 0.00343850 -0.00362998
v 0.00624500 0.00422248 -0.00264742
v 0.00624500 0.00257777 -0.00428429
v 0.00624500 0.00249101 -0.00432443
v 0.00624500 0.00277685 -0.00413295
v 0.00624500 0.00159651 -0.00473827
v 0.00624500 0.00054060 -0.00497069
v 0.00624500 0.00102760 -0.00486349
v 0.00624500 -0.00054060 -0.00497069
v 0.00624500 -0.00033936 -0.00497069
v 0.00624500 -0.00159651 -0.00473827
v 0.00624500 -0.00257777 -0.00428429
v 0.00624500 -0.00277685 -0.00413295
v 0.00624500 -0.00173692 -0.00467330
v 0.00624500 -0.00413844 -0.00280594
v 0.00624500 -0.00331551 -0.00372347
v 0.00624500 -0.00343850 -0.00362998
v 0.00624500 -0.00464488 -0.00185069
v 0.00624500 -0.00422248 -0.00264742
v 0.00624500 -0.00493413 -0.00080891
v 0.00624500 -0.00499267 0.00027069
v 0.00624500 -0.00486687 -0.00105116
v 0.00624500 -0.00494096 0.00058607
v 0.00624500 -0.00481775 0.00133764
v 0.00624500 -0.00381081 0.00323693
v 0.00624500 -0.00331839 0.00370337
v 0.00624500 -0.00441756 0.00234204
v 0.00624500 -0.00447341 0.00220188
v 0.00624500 -0.00209945 0.00453788
v 0.00624500 -0.00302587 0.00398047
v 0.00624500 -0.00329643 0.00372418
v 0.00624500 -0.00107485 0.00488310
v 0.00624500 -0.00173966 0.00465910
v 0.00624500 0.00000000 0.00500000
v 0.00624500 -0.00033969 0.00496306
v 0.20000000 0.00000000 0.00500000
v 0.20000000 0.00000000 0.00500000
v 0.20000000 0.00107485 0.00488310
v 0.20000000 0.00107485 0.00488310
v 0.20000000 0.00209945 0.00453788
v 0.20000000 0.00209945 0.00453788
v 0.20000000 0.00302587 0.00398047
v 0.20000000 0.00302587 0.00398047
v 0.20000000 0.00381081 0.00323693
v 0.20000000 0.00381081 0.00323693
v 0.20000000 0.00441756 0.00234204
v 0.20000000 0.00441756 0.00234204
v 0.20000000 0.00481775 0.00133764
v 0.20000000 0.00481775 0.00133764
v 0.20000000 0.00499267 0.00027069
v 0.20000000 0.00499267 0.00027069
v 0.20000000 0.00493413 -0.00080891
v 0.20000000 0.00493413 -0.00080891
v 0.20000000 0.00464488 -0.00185069
v 0.20000000 0.00464488 -0.00185069
v 0.20000000 0.00413844 -0.00280594
v 0.20000000 0.00413844 -0.00280594
v 0.20000000 0.00343850 -0.00362998
v 0.20000000 0.00343850 -0.00362998
v 0.20000000 0.00257777 -0.00428429
v 0.20000000 0.00257777 -0.00428429
v 0.20000000 0.00159651 -0.00473827
v 0.20000000 0.00159651 -0.00473827
v 0.20000000 0.00054060 -0.00497069
v 0.20000000 0.00054060 -0.00497069
v 0.20000000 0.00000000 -0.00500000
v 0.20000000 0.00000000 -0.00500000
v 0.20000000 -0.00054060 -0.00497069
v 0.20000000 -0.00054060 -0.00497069
v 0.20000000 -0.00159651 -0.00473827
v 0.20000000 -0.00159651 -0.00473827
v 0.20000000 -0.00257777 -0.00428429
v 0.20000000 -0.00257777 -0.00428429
v 0.20000000 -0.00343850 -0.00362998
v 0.20000000 -0.00343850 -0.00362998
v 0.20000000 -0.00413844 -0.00280594
v 0.20000000 -0.00413844 -0.00280594
v 0.20000000 -0.00464488 -0.00185069
v 0.20000000 -0.00464488 -0.00185069
v 0.20000000 -0.00493413 -0.00080891
v 0.20000000 -0.00493413 -0.00080891
v 0.20000000 -0.00499267 0.00027069
v 0.20000000 -0.00499267 0.00027069
v 0.20000000 -0.00481775 0.00133764
v 0.20000000 -0.00481775 0.00133764
v 0.20000000 -0.00441756 0.00234204
v 0.20000000 -0.00441756 0.00234204
v 0.20000000 -0.00381081 0.00323693
v 0.20000000 -0.00381081 0.00323693
v 0.20000000 -0.00302587 0.00398047
v 0.20000000 -0.00302587 0.00398047
v 0.20000000 -0.00209945 0.00453788
v 0.20000000 -0.00209945 0.00453788
v 0.20000000 -0.00107485 0.00488310
v 0.20000000 -0.00107485 0.00488310
v 0.20000000 0.00000000 0.00000000
v 0.22056400 -0.00500000 -0.01122090
v 0.22056400 -0.00500000 -0.01122090
v 0.22056400 -0.00500000 -0.01122090
v 0.22056400 0.00500000 -0.01122090
v 0.22056400 0.00500000 -0.01122090
v 0.22056400 0.00500000 -0.01122090
v 0.22372500 0.00500000 -0.01122090
v 0.22372500 0.00500000 -0.01122090
v 0.22372500 0.00500000 -0.01122090
v 0.22372500 -0.00500000 -0.01122090
v 0.22372500 -0.00500000 -0.01122090
v 0.22372500 -0.00500000 -0.01122090
v 0.21573200 0.00500000 0.00138900
v 0.21573200 0.00500000 0.00138900
v 0.21573200 0.00500000 0.00138900
v 0.21573200 -0.00500000 0.00138900
v 0.21573200 -0.00500000 0.00138900
v 0.21573200 -0.00500000 0.00138900
v 0.22314800 0.00500000 0.01272530
v 0.22314800 0.00500000 0.01272530
v 0.22314800 0.00500000 0.01272530
v 0.22314800 -0.00500000 0.01272530
v 0.22314800 -0.00500000 0.01272530
v 0.22314800 -0.00500000 0.01272530
v 0.22018700 0.00500000 0.01272530
v 0.22018700 0.00500000 0.01272530
v 0.22018700 0.00500000 0.01272530
v 0.22018700 -0.00500000 0.01272530
v 0.22018700 -0.00500000 0.01272530
v 0.22018700 -0.00500000 0.01272530
v 0.21419100 0.00500000 0.00323908
v 0.21419100 0.00500000 0.00323908
v 0.21419100 0.00500000 0.00323908
v 0.21419100 -0.00500000 0.00323908
v 0.21419100 -0.00500000 0.00323908
v 0.21419100 -0.00500000 0.00323908
v 0.20824800 0.00500000 0.01272530
v 0.20824800 0.00500000 0.01272530
v 0.20824800 0.00500000 0.01272530
v 0.20824800 -0.00500000 0.01272530
v 0.20824800 -0.00500000 0.01272530
v 0.20824800 -0.00500000 0.01272530
v 0.20516600 0.00500000 0.01272530
v 0.20516600 0.00500000 0.01272530
v 0.20516600 0.00500000 0.01272530
v 0.20516600 -0.00500000 0.01272530
v 0.20516600 -0.00500000 0.01272530
v 0.20516600 -0.00500000 0.01272530
v 0.21258700 0.00500000 0.00129466
v 0.21258700 0.00500000 0.00129466
v 0.21258700 0.00500000 0.00129466
v 0.21258700 -0.00500000 0.00129466
v 0.21258700 -0.00500000 0.00129466
v 0.21258700 -0.00500000 0.00129466
v 0.20462600 0.00500000 -0.01122090
v 0.20462600 0.00500000 -0.01122090
v 0.20462600 0.00500000 -0.01122090
v 0.20462600 -0.00500000 -0.01122090
v 0.20462600 -0.00500000 -0.01122090
v 0.20462600 -0.00500000 -0.01122090
v 0.21412800 -0.00500000 -0.00069169
v 0.21412800 -0.00500000 -0.00069169
v 0.21412800 -0.00500000 -0.00069169
v 0.20757700 -0.00500000 -0.01122090
v 0.20757700 -0.00500000 -0.01122090
v 0.20757700 -0.00500000 -0.01122090
v 0.21412800 0.00500000 -0.00069169
v 0.21412800 0.00500000 -0.00069169
v 0.21412800 0.00500000 -0.00069169
v 0.20757700 0.00500000 -0.01122090
v 0.20757700 0.00500000 -0.01122090
v 0.20757700 0.00500000 -0.01122090
vn 0.00000000 0.21497000 0.97662100
vn 0.00000000 0.41988900 0.90757500
vn 0.00000000 0.60517400 0.79609300
vn 0.00000000 0.66279500 0.74880100
vn 0.00000000 0.50210500 0.86480700
vn 0.00000000 0.76216200 0.64738600
vn 0.00000000 0.88351200 0.46840800
vn 0.00000000 0.85202000 0.52351000
vn 0.00000000 0.96355000 0.26752800
vn 0.00000000 0.89720400 0.44161700
vn 0.00000000 0.99853300 0.05413890
vn 0.00000000 0.99303900 0.11778900
vn 0.00000000 0.98682700 -0.16178200
vn 0.00000000 0.92897700 -0.37013800
vn 0.00000000 0.85049500 -0.52598400
vn 0.00000000 0.97746100 -0.21111400
vn 0.00000000 0.82768900 -0.56118700
vn 0.00000000 0.68769900 -0.72599500
vn 0.00000000 0.84724300 -0.53120600
vn 0.00000000 0.51555400 -0.85685700
vn 0.00000000 0.49914300 -0.86652000
vn 0.00000000 0.55769300 -0.83004700
vn 0.00000000 0.31930200 -0.94765300
vn 0.00000000 0.10811900 -0.99413800
vn 0.00000000 0.20672500 -0.97839900
vn 0.00000000 -0.10811900 -0.99413800
vn 0.00000000 -0.06811400 -0.99767800
vn 0.00000000 -0.31930200 -0.94765300
vn 0.00000000 -0.51555400 -0.85685700
vn 0.00000000 -0.55769300 -0.83004700
vn 0.00000000 -0.34838400 -0.93735200
vn 0.00000000 -0.82768900 -0.56118700
vn 0.00000000 -0.66500800 -0.74683600
vn 0.00000000 -0.68769900 -0.72599500
vn 0.00000000 -0.92897700 -0.37013800
vn 0.00000000 -0.84724300 -0.53120600
vn 0.00000000 -0.98682700 -0.16178200
vn 0.00000000 -0.99853300 0.05413890
vn 0.00000000 -0.97746100 -0.21111400
vn 0.00000000 -0.99303900 0.11778900
vn 0.00000000 -0.96355000 0.26752800
vn 0.00000000 -0.76216200 0.64738600
vn 0.00000000 -0.66733600 0.74475700
vn 0.00000000 -0.88351200 0.46840800
vn 0.00000000 -0.89720400 0.44161700
vn 0.00000000 -0.41988900 0.90757500
vn 0.00000000 -0.60517400 0.79609300
vn 0.00000000 -0.66279500 0.74880100
vn 0.00000000 -0.21497000 0.97662100
vn 0.00000000 -0.34980000 0.93682400
vn 0.00000000 0.00000000 1.00000000
vn 0.00000000 -0.06828440 0.99766600
vn 1.00000000 0.00000000 0.00000000
vn 0.00000000 0.00000000 1.00000000
vn 0.00000000 0.21497000 0.97662100
vn 1.00000000 0.00000000 0.00000000
vn 0.00000000 0.41988900 0.90757500
vn 1.00000000 0.00000000 0.00000000
vn 0.00000000 0.60517400 0.79609300
vn 1.00000000 0.00000000 0.00000000
vn 0.00000000 0.76216200 0.64738600
vn 1.00000000 0.00000000 0.00000000
vn 0.00000000 0.88351200 0.46840800
vn 1.00000000 0.00000000 0.00000000
vn 0.00000000 0.96355000 0.26752800
vn 1.00000000 0.00000000 0.00000000
vn 1.00000000 0.00000000 0.00000000
vn 0.00000000 0.99853300 0.05413890
vn 0.00000000 0.98682700 -0.16178200
vn 1.00000000 0.00000000 0.00000000
vn 0.00000000 0.92897700 -0.37013800
vn 1.00000000 0.00000000 0.00000000
vn 1.00000000 0.00000000 0.00000000
vn 0.00000000 0.82768900 -0.56118700
vn 1.00000000 0.00000000 0.00000000
vn 0.00000000 0.68769900 -0.72599500
vn 1.00000000 0.00000000 0.00000000
vn 0.00000000 0.51555400 -0.85685700
vn 1.00000000 0.00000000 0.00000000
vn 0.00000000 0.31930200 -0.94765300
vn 1.00000000 0.00000000 0.00000000
vn 0.00000000 0.10811900 -0.99413800
vn 1.00000000 0.00000000 0.00000000
vn 0.00000000 0.00000000 -1.00000000
vn 0.00000000 -0.10811900 -0.99413800
vn 1.00000000 0.00000000 0.00000000
vn 0.00000000 -0.31930200 -0.94765300
vn 1.00000000 0.00000000 0.00000000
vn 1.00000000 0.00000000 0.00000000
vn 0.00000000 -0.51555400 -0.85685700
vn 0.00000000 -0.68769900 -0.72599500
vn 1.00000000 0.00000000 0.00000000
vn 0.00000000 -0.82768900 -0.56118700
vn 1.00000000 0.00000000 0.00000000
vn 0.00000000 -0.92897700 -0.37013800
vn 1.00000000 0.00000000 0.00000000
vn 0.00000000 -0.98682700 -0.16178200
vn 1.00000000 0.00000000 0.00000000
vn 0.00000000 -0.99853300 0.05413890
vn 1.00000000 0.00000000 0.00000000
vn 1.00000000 0.00000000 0.00000000
vn 0.00000000 -0.96355000 0.26752800
vn 0.00000000 -0.88351200 0.46840800
vn 1.00000000 0.00000000 0.00000000
vn 0.00000000 -0.76216200 0.64738600
vn 1.00000000 0.00000000 0.00000000
vn 1.00000000 0.00000000 0.00000000
vn 0.00000000 -0.60517400 0.79609300
vn 0.00000000 -0.41988900 0.90757500
vn 1.00000000 0.00000000 0.00000000
vn 1.00000000 0.00000000 0.00000000
vn 0.00000000 -0.21497000 0.97662100
vn 1.00000000 0.00000000 0.00000000
vn -0.85322900 0.00000000 -0.52153600
vn 0.00000000 -1.00000000 0.00000000
vn 0.00000000 0.00000000 -1.00000000
vn 0.00000000 1.00000000 0.00000000
vn -0.85322900 0.00000000 -0.52153600
vn 0.00000000 0.00000000 -1.00000000
vn 0.00000000 0.00000000 -1.00000000
vn 0.00000000 1.00000000 0.00000000
vn 0.84462900 0.00000000 0.53535300
vn 0.00000000 -1.00000000 0.00000000
vn 0.84462900 0.00000000 0.53535300
vn 0.00000000 0.00000000 -1.00000000
vn 0.83684000 0.00000000 -0.54744700
vn 0.00000000 1.00000000 0.00000000
vn 0.84462900 0.00000000 0.53535300
vn 0.83684000 0.00000000 -0.54744700
vn 0.84462900 0.00000000 0.53535300
vn 0.00000000 -1.00000000 0.00000000
vn 0.83684000 0.00000000 -0.54744700
vn 0.00000000 0.00000000 1.00000000
vn 0.00000000 1.00000000 0.00000000
vn 0.00000000 -1.00000000 0.00000000
vn 0.00000000 0.00000000 1.00000000
vn 0.83684000 0.00000000 -0.54744700
vn -0.84531100 0.00000000 0.53427400
vn 0.00000000 1.00000000 0.00000000
vn 0.00000000 0.00000000 1.00000000
vn 0.00000000 -1.00000000 0.00000000
vn 0.00000000 0.00000000 1.00000000
vn -0.84531100 0.00000000 0.53427400
vn 0.84741900 0.00000000 0.53092400
vn 0.00000000 1.00000000 0.00000000
vn -0.84531100 0.00000000 0.53427400
vn -0.84531100 0.00000000 0.53427400
vn 0.00000000 -1.00000000 0.00000000
vn 0.84741900 0.00000000 0.53092400
vn 0.00000000 1.00000000 0.00000000
vn 0.00000000 0.00000000 1.00000000
vn 0.84741900 0.00000000 0.53092400
vn 0.00000000 0.00000000 1.00000000
vn 0.84741900 0.00000000 0.53092400
vn 0.00000000 -1.00000000 0.00000000
vn 0.00000000 1.00000000 0.00000000
vn -0.83873300 0.00000000 -0.54454200
vn 0.00000000 0.00000000 1.00000000
vn -0.83873300 0.00000000 -0.54454200
vn 0.00000000 -1.00000000 0.00000000
vn 0.00000000 0.00000000 1.00000000
vn -0.83873300 0.00000000 -0.54454200
vn -0.84376300 0.00000000 0.53671500
vn 0.00000000 1.00000000 0.00000000
vn -0.83873300 0.00000000 -0.54454200
vn 0.00000000 -1.00000000 0.00000000
vn -0.84376300 0.00000000 0.53671500
vn -0.84376300 0.00000000 0.53671500
vn 0.00000000 1.00000000 0.00000000
vn 0.00000000 0.00000000 -1.00000000
vn -0.84376300 0.00000000 0.53671500
vn 0.00000000 0.00000000 -1.00000000
vn 0.00000000 -1.00000000 0.00000000
vn 0.00000000 -1.00000000 0.00000000
vn 0.84906500 0.00000000 -0.52828800
vn -0.85322900 0.00000000 -0.52153600
vn 0.00000000 0.00000000 -1.00000000
vn 0.00000000 -1.00000000 0.00000000
vn 0.84906500 0.00000000 -0.52828800
vn 0.00000000 1.00000000 0.00000000
vn 0.84906500 0.00000000 -0.52828800
vn -0.85322900 0.00000000 -0.52153600
vn 0.84906500 0.00000000 -0.52828800
vn 0.00000000 0.00000000 -1.00000000
vn 0.00000000 1.00000000 0.00000000
f 51//51 54//54 55//55
f 1//1 55//55 57//57
f 59//59 3//3 5//5
f 5//5 57//57 59//59
f 61//61 6//6 4//4
f 4//4 59//59 61//61
f 63//63 7//7 8//8
f 8//8 61//61 63//63
f 8//8 6//6 61//61
f 65//65 9//9 10//10
f 10//10 63//63 65//65
f 68//68 11//11 12//12
f 12//12 65//65 68//68
f 12//12 9//9 65//65
f 11//11 68//68 69//69
f 71//71 14//14 16//16
f 16//16 69//69 71//71
f 74//74 17//17 19//19
f 19//19 71//71 74//74
f 19//19 15//15 71//71
f 15//15 14//14 71//71
f 17//17 74//74 76//76
f 78//78 20//20 22//22
f 22//22 76//76 78//78
f 22//22 18//18 76//76
f 80//80 23//23 21//21
f 21//21 78//78 80//80
f 82//82 24//24 25//25
f 25//25 80//80 82//82
f 25//25 23//23 80//80
f 84//84 26//26 27//27
f 27//27 82//82 84//84
f 84//84 85//85 26//26
f 27//27 24//24 82//82
f 26//26 85//85 87//87
f 90//90 29//29 31//31
f 31//31 87//87 90//90
f 90//90 33//33 30//30
f 91//91 34//34 33//33
f 33//33 90//90 91//91
f 30//30 29//29 90//90
f 34//34 91//91 93//93
f 95//95 35//35 36//36
f 36//36 93//93 95//95
f 97//97 37//37 39//39
f 39//39 95//95 97//97
f 39//39 35//35 95//95
f 37//37 97//97 99//99
f 102//102 41//41 40//40
f 40//40 99//99 102//102
f 103//103 44//44 45//45
f 45//45 102//102 103//103
f 45//45 41//41 102//102
f 44//44 103//103 105//105
f 105//105 48//48 43//43
f 108//108 47//47 48//48
f 48//48 105//105 108//108
f 43//43 42//42 105//105
f 47//47 108//108 109//109
f 112//112 49//49 50//50
f 50//50 109//109 112//112
f 54//54 51//51 52//52
f 52//52 112//112 54//54
f 52//52 49//49 112//112
f 50//50 46//46 109//109
f 109//109 46//46 47//47
f 105//105 42//42 44//44
f 40//40 38//38 99//99
f 99//99 38//38 37//37
f 36//36 32//32 93//93
f 93//93 32//32 34//34
f 31//31 28//28 87//87
f 87//87 28//28 26//26
f 21//21 20//20 78//78
f 76//76 18//18 17//17
f 16//16 13//13 69//69
f 69//69 13//13 11//11
f 10//10 7//7 63//63
f 4//4 3//3 59//59
f 5//5 2//2 57//57
f 57//57 2//2 1//1
f 55//55 1//1 51//51
f 113//113 81//81 79//79
f 79//79 77//77 113//113
f 77//77 75//75 113//113
f 75//75 73//73 113//113
f 73//73 72//72 113//113
f 72//72 70//70 113//113
f 70//70 67//67 113//113
f 67//67 66//66 113//113
f 66//66 64//64 113//113
f 64//64 62//62 113//113
f 62//62 60//60 113//113
f 60//60 58//58 113//113
f 58//58 56//56 113//113
f 56//56 53//53 113//113
f 53//53 111//111 113//113
f 111//111 110//110 113//113
f 110//110 107//107 113//113
f 107//107 106//106 113//113
f 106//106 104//104 113//113
f 104//104 101//101 113//113
f 101//101 100//100 113//113
f 100//100 98//98 113//113
f 98//98 96//96 113//113
f 96//96 94//94 113//113
f 94//94 92//92 113//113
f 92//92 89//89 113//113
f 89//89 88//88 113//113
f 88//88 86//86 113//113
f 86//86 83//83 113//113
f 83//83 81//81 113//113
f 116//116 119//119 120//120
f 120//120 125//125 116//116
f 124//124 122//122 128//128
f 128//128 130//130 124//124
f 129//129 126//126 132//132
f 132//132 137//137 129//129
f 136//136 133//133 140//140
f 140//140 142//142 136//136
f 143//143 138//138 146//146
f 146//146 147//147 143//143
f 149//149 144//144 152//152
f 152//152 154//154 149//149
f 153//153 151//151 158//158
f 158//158 161//161 153//153
f 159//159 157//157 162//162
f 162//162 165//165 159//159
f 167//167 163//163 168//168
f 168//168 171//171 167//167
f 131//131 174//174 115//115
f 166//166 173//173 178//178
f 131//131 135//135 141//141
f 115//115 123//123 131//131
f 174//174 148//148 166//166
f 166//166 148//148 155//155
f 131//131 148//148 174//174
f 155//155 160//160 166//166
f 178//178 174//174 166//166
f 141//141 148//148 131//131
f 164//164 180//180 185//185
f 127//127 121//121 117//117
f 164//164 156//156 150//150
f 185//185 169//169 164//164
f 180//180 145//145 127//127
f 127//127 145//145 139//139
f 164//164 145//145 180//180
f 139//139 134//134 127//127
f 117//117 180//180 127//127
f 150//150 145//145 164//164
f 172//172 170//170 184//184
f 184//184 177//177 172//172
f 179//179 183//183 181//181
f 181//181 175//175 179//179
f 176//176 182//182 118//118
f 118//118 114//114 176//176
