mtllib material.mtl
usemtl material_0
v 0.00497069 0.00054060 0.20000000
v 0.00497069 0.00054060 0.20000000
v 0.00473827 0.00159651 0.20000000
v 0.00473827 0.00159651 0.20000000
v 0.00428429 0.00257777 0.20000000
v 0.00428429 0.00257777 0.20000000
v 0.00362998 0.00343850 0.20000000
v 0.00362998 0.00343850 0.20000000
v 0.00280594 0.00413844 0.20000000
v 0.00280594 0.00413844 0.20000000
v 0.00185069 0.00464488 0.20000000
v 0.00185069 0.00464488 0.20000000
v 0.00080891 0.00493413 0.20000000
v 0.00080891 0.00493413 0.20000000
v -0.00027069 0.00499267 0.20000000
v -0.00027069 0.00499267 0.20000000
v -0.00133764 0.00481775 0.20000000
v -0.00133764 0.00481775 0.20000000
v -0.00234204 0.00441756 0.20000000
v -0.00234204 0.00441756 0.20000000
v -0.00323693 0.00381081 0.20000000
v -0.00323693 0.00381081 0.20000000
v -0.00398047 0.00302587 0.20000000
v -0.00398047 0.00302587 0.20000000
v -0.00453788 0.00209945 0.20000000
v -0.00453788 0.00209945 0.20000000
v -0.00488310 0.00107485 0.20000000
v -0.00488310 0.00107485 0.20000000
v -0.00500000 0.00000000 0.20000000
v -0.00500000 0.00000000 0.20000000
v -0.00488310 -0.00107485 0.20000000
v -0.00488310 -0.00107485 0.20000000
v -0.00453788 -0.00209945 0.20000000
v -0.00453788 -0.00209945 0.20000000
v -0.00398047 -0.00302587 0.20000000
v -0.00398047 -0.00302587 0.20000000
v -0.00323693 -0.00381081 0.20000000
v -0.00323693 -0.00381081 0.20000000
v -0.00234204 -0.00441756 0.20000000
v -0.00234204 -0.00441756 0.20000000
v -0.00133764 -0.00481775 0.20000000
v -0.00133764 -0.00481775 0.20000000
v -0.00027069 -0.00499267 0.20000000
v -0.00027069 -0.00499267 0.20000000
v 0.00080891 -0.00493413 0.20000000
v 0.00080891 -0.00493413 0.20000000
v 0.00185069 -0.00464488 0.20000000
v 0.00185069 -0.00464488 0.20000000
v 0.00280594 -0.00413844 0.20000000
v 0.00280594 -0.00413844 0.20000000
v 0.00362998 -0.00343850 0.20000000
v 0.00362998 -0.00343850 0.20000000
v 0.00428429 -0.00257777 0.20000000
v 0.00428429 -0.00257777 0.20000000
v 0.00473827 -0.00159651 0.20000000
v 0.00473827 -0.00159651 0.20000000
v 0.00497069 -0.00054060 0.20000000
v 0.00497069 -0.00054060 0.20000000
v 0.00500000 0.00000000 0.20000000
v 0.00500000 0.00000000 0.20000000
v 0.00000000 0.00000000 0.20000000
v -0.00486193 0.00106897 0.00624500
v -0.00493413 0.00080891 0.00624500
v -0.00500000 0.00000000 0.00624500
v -0.00451846 0.00208915 0.00624500
v -0.00464488 0.00185069 0.00624500
v -0.00396372 0.00301164 0.00624500
v -0.00413844 0.00280594 0.00624500
v -0.00322363 0.00379331 0.00624500
v -0.00343850 0.00362998 0.00624500
v -0.00233281 0.00439761 0.00624500
v -0.00257777 0.00428429 0.00624500
v -0.00133292 0.00479629 0.00624500
v -0.00159651 0.00473827 0.00624500
v -0.00027069 0.00497069 0.00624500
v -0.00054060 0.00497069 0.00624500
v 0.00080419 0.00491267 0.00624500
v 0.00054060 0.00497069 0.00624500
v 0.00184146 0.00462494 0.00624500
v 0.00159651 0.00473827 0.00624500
v 0.00279264 0.00412095 0.00624500
v 0.00257777 0.00428429 0.00624500
v 0.00361323 0.00342427 0.00624500
v 0.00343850 0.00362998 0.00624500
v 0.00426487 0.00256747 0.00624500
v 0.00413844 0.00280594 0.00624500
v 0.00471709 0.00159063 0.00624500
v 0.00464488 0.00185069 0.00624500
v 0.00494874 0.00053940 0.00624500
v 0.00493413 0.00080891 0.00624500
v 0.00494900 -0.00053704 0.00624500
v 0.00499267 -0.00027069 0.00624500
v 0.00471785 -0.00158837 0.00624500
v 0.00481775 -0.00133764 0.00624500
v 0.00426610 -0.00256544 0.00624500
v 0.00441756 -0.00234204 0.00624500
v 0.00361486 -0.00342254 0.00624500
v 0.00381081 -0.00323693 0.00624500
v 0.00279460 -0.00411961 0.00624500
v 0.00302587 -0.00398047 0.00624500
v 0.00184367 -0.00462406 0.00624500
v 0.00209945 -0.00453788 0.00624500
v 0.00080653 -0.00491228 0.00624500
v 0.00107485 -0.00488310 0.00624500
v -0.00026832 -0.00497082 0.00624500
v 0.00000000 -0.00500000 0.00624500
v -0.00133062 -0.00479692 0.00624500
v -0.00107485 -0.00488310 0.00624500
v -0.00233071 -0.00439873 0.00624500
v -0.00209945 -0.00453788 0.00624500
v -0.00322182 -0.00379485 0.00624500
v -0.00302587 -0.00398047 0.00624500
v -0.00396227 -0.00301354 0.00624500
v -0.00381081 -0.00323693 0.00624500
v -0.00451746 -0.00209131 0.00624500
v -0.00441756 -0.00234204 0.00624500
v -0.00486142 -0.00107130 0.00624500
v -0.00481775 -0.00133764 0.00624500
v -0.00499267 -0.00027069 0.00624500
v -0.00691293 -0.00500000 0.20447000
v -0.00691293 -0.00500000 0.20447000
v -0.00691293 -0.00500000 0.20447000
v -0.00691293 0.00500000 0.20447000
v -0.00691293 0.00500000 0.20447000
v -0.00691293 0.00500000 0.20447000
v 0.00341776 0.00500000 0.20447000
v 0.00341776 0.00500000 0.20447000
v 0.00341776 0.00500000 0.20447000
v 0.00341776 -0.00500000 0.20447000
v 0.00341776 -0.00500000 0.20447000
v 0.00341776 -0.00500000 0.20447000
v 0.00341776 0.00500000 0.20605200
v 0.00341776 0.00500000 0.20605200
v 0.00341776 0.00500000 0.20605200
v 0.00341776 -0.00500000 0.20605200
v 0.00341776 -0.00500000 0.20605200
v 0.00341776 -0.00500000 0.20605200
v -0.00478496 0.00500000 0.20605200
v -0.00478496 0.00500000 0.20605200
v -0.00478496 0.00500000 0.20605200
v -0.00478496 -0.00500000 0.20605200
v -0.00478496 -0.00500000 0.20605200
v -0.00478496 -0.00500000 0.20605200
v 0.00319082 0.00500000 0.21812900
v 0.00319082 0.00500000 0.21812900
v 0.00319082 0.00500000 0.21812900
v 0.00319082 -0.00500000 0.21812900
v 0.00319082 -0.00500000 0.21812900
v 0.00319082 -0.00500000 0.21812900
v 0.00319082 0.00500000 0.21949700
v 0.00319082 0.00500000 0.21949700
v 0.00319082 0.00500000 0.21949700
v 0.00319082 -0.00500000 0.21949700
v 0.00319082 -0.00500000 0.21949700
v 0.00319082 -0.00500000 0.21949700
v -0.00666626 0.00500000 0.21949700
v -0.00666626 0.00500000 0.21949700
v -0.00666626 0.00500000 0.21949700
v -0.00666626 -0.00500000 0.21949700
v -0.00666626 -0.00500000 0.21949700
v -0.00666626 -0.00500000 0.21949700
v -0.00666626 0.00500000 0.21792500
v -0.00666626 0.00500000 0.21792500
v -0.00666626 0.00500000 0.21792500
v -0.00666626 -0.00500000 0.21792500
v -0.00666626 -0.00500000 0.21792500
v -0.00666626 -0.00500000 0.21792500
v 0.00106285 -0.00500000 0.21792500
v 0.00106285 -0.00500000 0.21792500
v 0.00106285 -0.00500000 0.21792500
v -0.00691293 -0.00500000 0.20583800
v -0.00691293 -0.00500000 0.20583800
v -0.00691293 -0.00500000 0.20583800
v 0.00106285 0.00500000 0.21792500
v 0.00106285 0.00500000 0.21792500
v 0.00106285 0.00500000 0.21792500
v -0.00691293 0.00500000 0.20583800
v -0.00691293 0.00500000 0.20583800
v -0.00691293 0.00500000 0.20583800
vn 0.00000000 0.00000000 1.00000000
vn 0.99413800 0.10811900 0.00000000
vn 0.00000000 0.00000000 1.00000000
vn 0.94765300 0.31930200 0.00000000
vn 0.00000000 0.00000000 1.00000000
vn 0.85685700 0.51555400 0.00000000
vn 0.00000000 0.00000000 1.00000000
vn 0.72599500 0.68769900 0.00000000
vn 0.00000000 0.00000000 1.00000000
vn 0.56118700 0.82768900 0.00000000
vn 0.00000000 0.00000000 1.00000000
vn 0.37013800 0.92897700 0.00000000
vn 0.00000000 0.00000000 1.00000000
vn 0.16178200 0.98682700 0.00000000
vn 0.00000000 0.00000000 1.00000000
vn -0.05413890 0.99853300 0.00000000
vn -0.26752800 0.96355000 0.00000000
vn 0.00000000 0.00000000 1.00000000
vn 0.00000000 0.00000000 1.00000000
vn -0.46840800 0.88351200 0.00000000
vn -0.64738600 0.76216200 0.00000000
vn 0.00000000 0.00000000 1.00000000
vn -0.79609300 0.60517400 0.00000000
vn 0.00000000 0.00000000 1.00000000
vn 0.00000000 0.00000000 1.00000000
vn -0.90757500 0.41988900 0.00000000
vn -0.97662100 0.21497000 0.00000000
vn 0.00000000 0.00000000 1.00000000
vn 0.00000000 0.00000000 1.00000000
vn -1.00000000 0.00000000 0.00000000
vn 0.00000000 0.00000000 1.00000000
vn -0.97662100 -0.21497000 0.00000000
vn 0.00000000 0.00000000 1.00000000
vn -0.90757500 -0.41988900 0.00000000
vn -0.79609300 -0.60517400 0.00000000
vn 0.00000000 0.00000000 1.00000000
vn -0.64738600 -0.76216200 0.00000000
vn 0.00000000 0.00000000 1.00000000
vn -0.46840800 -0.88351200 0.00000000
vn 0.00000000 0.00000000 1.00000000
vn 0.00000000 0.00000000 1.00000000
vn -0.26752800 -0.96355000 0.00000000
vn -0.05413890 -0.99853300 0.00000000
vn 0.00000000 0.00000000 1.00000000
vn 0.16178200 -0.98682700 0.00000000
vn 0.00000000 0.00000000 1.00000000
vn 0.37013800 -0.92897700 0.00000000
vn 0.00000000 0.00000000 1.00000000
vn 0.00000000 0.00000000 1.00000000
vn 0.56118700 -0.82768900 0.00000000
vn 0.00000000 0.00000000 1.00000000
vn 0.72599500 -0.68769900 0.00000000
vn 0.85685700 -0.51555400 0.00000000
vn 0.00000000 0.00000000 1.00000000
vn 0.94765300 -0.31930200 0.00000000
vn 0.00000000 0.00000000 1.00000000
vn 0.00000000 0.00000000 1.00000000
vn 0.99413800 -0.10811900 0.00000000
vn 0.00000000 0.00000000 1.00000000
vn 1.00000000 0.00000000 0.00000000
vn 0.00000000 0.00000000 1.00000000
vn -0.97667200 0.21473700 0.00000000
vn -0.98682700 0.16178200 0.00000000
vn -1.00000000 0.00000000 0.00000000
vn -0.90767600 0.41967200 0.00000000
vn -0.92897700 0.37013800 0.00000000
vn -0.79623800 0.60498400 0.00000000
vn -0.82768900 0.56118700 0.00000000
vn -0.64756800 0.76200700 0.00000000
vn -0.68769900 0.72599500 0.00000000
vn -0.46862000 0.88340000 0.00000000
vn -0.51555400 0.85685700 0.00000000
vn -0.26775900 0.96348600 0.00000000
vn -0.31930200 0.94765300 0.00000000
vn -0.05437760 0.99852000 0.00000000
vn -0.10811900 0.99413800 0.00000000
vn 0.16154600 0.98686500 0.00000000
vn 0.10811900 0.99413800 0.00000000
vn 0.36991600 0.92906500 0.00000000
vn 0.31930200 0.94765300 0.00000000
vn 0.56098900 0.82782300 0.00000000
vn 0.51555400 0.85685700 0.00000000
vn 0.72583100 0.68787300 0.00000000
vn 0.68769900 0.72599500 0.00000000
vn 0.85673400 0.51575900 0.00000000
vn 0.82768900 0.56118700 0.00000000
vn 0.94757700 0.31952800 0.00000000
vn 0.92897700 0.37013800 0.00000000
vn 0.99411200 0.10835700 0.00000000
vn 0.98682700 0.16178200 0.00000000
vn 0.99416400 -0.10788100 0.00000000
vn 0.99853300 -0.05413890 0.00000000
vn 0.94772900 -0.31907500 0.00000000
vn 0.96355000 -0.26752800 0.00000000
vn 0.85698000 -0.51534900 0.00000000
vn 0.88351200 -0.46840800 0.00000000
vn 0.72616000 -0.68752600 0.00000000
vn 0.76216200 -0.64738600 0.00000000
vn 0.56138500 -0.82755500 0.00000000
vn 0.60517400 -0.79609300 0.00000000
vn 0.37036000 -0.92888800 0.00000000
vn 0.41988900 -0.90757500 0.00000000
vn 0.16201800 -0.98678800 0.00000000
vn 0.21497000 -0.97662100 0.00000000
vn -0.05390020 -0.99854600 0.00000000
vn 0.00000000 -1.00000000 0.00000000
vn -0.26729800 -0.96361400 0.00000000
vn -0.21497000 -0.97662100 0.00000000
vn -0.46819700 -0.88362400 0.00000000
vn -0.41988900 -0.90757500 0.00000000
vn -0.64720400 -0.76231700 0.00000000
vn -0.60517400 -0.79609300 0.00000000
vn -0.79594800 -0.60536400 0.00000000
vn -0.76216200 -0.64738600 0.00000000
vn -0.90747500 -0.42010600 0.00000000
vn -0.88351200 -0.46840800 0.00000000
vn -0.97656900 -0.21520400 0.00000000
vn -0.96355000 -0.26752800 0.00000000
vn -0.99853300 -0.05413890 0.00000000
vn 0.00000000 0.00000000 -1.00000000
vn 0.00000000 -1.00000000 0.00000000
vn -1.00000000 0.00000000 0.00000000
vn 0.00000000 0.00000000 -1.00000000
vn 0.00000000 1.00000000 0.00000000
vn -1.00000000 0.00000000 0.00000000
vn 0.00000000 0.00000000 -1.00000000
vn 1.00000000 0.00000000 0.00000000
vn 0.00000000 1.00000000 0.00000000
vn 0.00000000 0.00000000 -1.00000000
vn 1.00000000 0.00000000 0.00000000
vn 0.00000000 -1.00000000 0.00000000
vn 0.00000000 1.00000000 0.00000000
vn 1.00000000 0.00000000 0.00000000
vn 0.00000000 0.00000000 1.00000000
vn 0.00000000 -1.00000000 0.00000000
vn 1.00000000 0.00000000 0.00000000
vn 0.00000000 0.00000000 1.00000000
vn 0.83445500 0.00000000 -0.55107600
vn 0.00000000 0.00000000 1.00000000
vn 0.00000000 1.00000000 0.00000000
vn 0.00000000 -1.00000000 0.00000000
vn 0.00000000 0.00000000 1.00000000
vn 0.83445500 0.00000000 -0.55107600
vn 0.83445500 0.00000000 -0.55107600
vn 0.00000000 1.00000000 0.00000000
vn 1.00000000 0.00000000 0.00000000
vn 1.00000000 0.00000000 0.00000000
vn 0.83445500 0.00000000 -0.55107600
vn 0.00000000 -1.00000000 0.00000000
vn 0.00000000 0.00000000 1.00000000
vn 1.00000000 0.00000000 0.00000000
vn 0.00000000 1.00000000 0.00000000
vn 1.00000000 0.00000000 0.00000000
vn 0.00000000 0.00000000 1.00000000
vn 0.00000000 -1.00000000 0.00000000
vn 0.00000000 0.00000000 1.00000000
vn 0.00000000 1.00000000 0.00000000
vn -1.00000000 0.00000000 0.00000000
vn 0.00000000 0.00000000 1.00000000
vn 0.00000000 -1.00000000 0.00000000
vn -1.00000000 0.00000000 0.00000000
vn -1.00000000 0.00000000 0.00000000
vn 0.00000000 1.00000000 0.00000000
vn 0.00000000 0.00000000 -1.00000000
vn -1.00000000 0.00000000 0.00000000
vn 0.00000000 0.00000000 -1.00000000
vn 0.00000000 -1.00000000 0.00000000
vn -0.83466200 0.00000000 0.55076300
vn 0.00000000 -1.00000000 0.00000000
vn 0.00000000 0.00000000 -1.00000000
vn 0.00000000 -1.00000000 0.00000000
vn -1.00000000 0.00000000 0.00000000
vn -0.83466200 0.00000000 0.55076300
vn 0.00000000 1.00000000 0.00000000
vn 0.00000000 0.00000000 -1.00000000
vn -0.83466200 0.00000000 0.55076300
vn -0.83466200 0.00000000 0.55076300
vn 0.00000000 1.00000000 0.00000000
vn -1.00000000 0.00000000 0.00000000
f 61//61 1//1 3//3
f 3//3 5//5 61//61
f 5//5 7//7 61//61
f 7//7 9//9 61//61
f 9//9 11//11 61//61
f 11//11 13//13 61//61
f 13//13 15//15 61//61
f 15//15 18//18 61//61
f 18//18 19//19 61//61
f 19//19 22//22 61//61
f 22//22 24//24 61//61
f 24//24 25//25 61//61
f 25//25 28//28 61//61
f 28//28 29//29 61//61
f 29//29 31//31 61//61
f 31//31 33//33 61//61
f 33//33 36//36 61//61
f 36//36 38//38 61//61
f 38//38 40//40 61//61
f 40//40 41//41 61//61
f 41//41 44//44 61//61
f 44//44 46//46 61//61
f 46//46 48//48 61//61
f 48//48 49//49 61//61
f 49//49 51//51 61//61
f 51//51 54//54 61//61
f 54//54 56//56 61//61
f 56//56 57//57 61//61
f 57//57 59//59 61//61
f 59//59 1//1 61//61
f 27//27 62//62 63//63
f 63//63 30//30 27//27
f 63//63 64//64 30//30
f 26//26 65//65 66//66
f 66//66 27//27 26//26
f 66//66 62//62 27//27
f 23//23 67//67 68//68
f 68//68 26//26 23//23
f 68//68 65//65 26//26
f 21//21 69//69 70//70
f 70//70 23//23 21//21
f 70//70 67//67 23//23
f 20//20 71//71 72//72
f 72//72 21//21 20//20
f 72//72 69//69 21//21
f 17//17 73//73 74//74
f 74//74 20//20 17//17
f 74//74 71//71 20//20
f 16//16 75//75 76//76
f 76//76 17//17 16//16
f 76//76 73//73 17//17
f 14//14 77//77 78//78
f 78//78 16//16 14//14
f 78//78 75//75 16//16
f 12//12 79//79 80//80
f 80//80 14//14 12//12
f 80//80 77//77 14//14
f 10//10 81//81 82//82
f 82//82 12//12 10//10
f 82//82 79//79 12//12
f 8//8 83//83 84//84
f 84//84 10//10 8//8
f 84//84 81//81 10//10
f 6//6 85//85 86//86
f 86//86 8//8 6//6
f 86//86 83//83 8//8
f 4//4 87//87 88//88
f 88//88 6//6 4//4
f 88//88 85//85 6//6
f 2//2 89//89 90//90
f 90//90 4//4 2//2
f 90//90 87//87 4//4
f 58//58 91//91 92//92
f 89//89 2//2 60//60
f 60//60 92//92 89//89
f 55//55 93//93 94//94
f 94//94 58//58 55//55
f 94//94 91//91 58//58
f 53//53 95//95 96//96
f 96//96 55//55 53//53
f 96//96 93//93 55//55
f 52//52 97//97 98//98
f 98//98 53//53 52//52
f 98//98 95//95 53//53
f 50//50 99//99 100//100
f 100//100 52//52 50//50
f 100//100 97//97 52//52
f 47//47 101//101 102//102
f 102//102 50//50 47//47
f 102//102 99//99 50//50
f 45//45 103//103 104//104
f 104//104 47//47 45//45
f 104//104 101//101 47//47
f 43//43 105//105 106//106
f 106//106 45//45 43//43
f 106//106 103//103 45//45
f 42//42 107//107 108//108
f 108//108 43//43 42//42
f 108//108 105//105 43//43
f 39//39 109//109 110//110
f 110//110 42//42 39//39
f 110//110 107//107 42//42
f 37//37 111//111 112//112
f 112//112 39//39 37//37
f 112//112 109//109 39//39
f 35//35 113//113 114//114
f 114//114 37//37 35//35
f 114//114 111//111 37//37
f 34//34 115//115 116//116
f 116//116 35//35 34//34
f 116//116 113//113 35//35
f 32//32 117//117 118//118
f 118//118 34//34 32//32
f 118//118 115//115 34//34
f 30//30 64//64 119//119
f 119//119 32//32 30//30
f 119//119 117//117 32//32
f 92//92 60//60 58//58
f 120//120 123//123 126//126
f 126//126 129//129 120//120
f 130//130 127//127 133//133
f 133//133 136//136 130//130
f 137//137 134//134 139//139
f 139//139 142//142 137//137
f 143//143 138//138 144//144
f 144//144 148//148 143//143
f 147//147 146//146 151//151
f 151//151 153//153 147//147
f 154//154 150//150 156//156
f 156//156 159//159 154//154
f 161//161 158//158 162//162
f 162//162 165//165 161//161
f 169//169 171//171 141//141
f 149//149 155//155 169//169
f 171//171 121//121 141//141
f 160//160 167//167 169//169
f 169//169 155//155 160//160
f 131//131 135//135 141//141
f 141//141 121//121 131//131
f 141//141 149//149 169//169
f 174//174 145//145 140//140
f 140//140 178//178 174//174
f 157//157 152//152 174//174
f 174//174 152//152 145//145
f 128//128 124//124 140//140
f 140//140 124//124 178//178
f 174//174 163//163 157//157
f 140//140 132//132 128//128
f 166//166 164//164 175//175
f 175//175 170//170 166//166
f 168//168 176//176 177//177
f 177//177 173//173 168//168
f 172//172 179//179 125//125
f 125//125 122//122 172//172
