mtllib material.mtl
usemtl material_0
v 0.00068154 0.00624500 -0.00492588
v 0.00107485 0.00624500 -0.00488310
v 0.00209945 0.00624500 -0.00453788
v 0.00210433 0.00624500 -0.00453494
v 0.00277200 0.00624500 -0.00413321
v 0.00302587 0.00624500 -0.00398047
v 0.00381081 0.00624500 -0.00323693
v 0.00421147 0.00624500 -0.00264600
v 0.00375970 0.00624500 -0.00328534
v 0.00441756 0.00624500 -0.00234204
v 0.00481775 0.00624500 -0.00133764
v 0.00499267 0.00624500 -0.00027069
v 0.00486462 0.00624500 -0.00105176
v 0.00493413 0.00624500 0.00080891
v 0.00494616 0.00624500 0.00058716
v 0.00464488 0.00624500 0.00185069
v 0.00413844 0.00624500 0.00280594
v 0.00376476 0.00624500 0.00324587
v 0.00445974 0.00624500 0.00219991
v 0.00343850 0.00624500 0.00362998
v 0.00257777 0.00624500 0.00428429
v 0.00211151 0.00624500 0.00450000
v 0.00331270 0.00624500 0.00372560
v 0.00159651 0.00624500 0.00473827
v 0.00054060 0.00624500 0.00497069
v 0.00068036 0.00624500 0.00493993
v -0.00054060 0.00624500 0.00497069
v -0.00068036 0.00624500 0.00493993
v -0.00159651 0.00624500 0.00473827
v -0.00257777 0.00624500 0.00428429
v -0.00331270 0.00624500 0.00372560
v -0.00211151 0.00624500 0.00450000
v -0.00343850 0.00624500 0.00362998
v -0.00413844 0.00624500 0.00280594
v -0.00445974 0.00624500 0.00219991
v -0.00376476 0.00624500 0.00324587
v -0.00464488 0.00624500 0.00185069
v -0.00493413 0.00624500 0.00080891
v -0.00494616 0.00624500 0.00058716
v -0.00499267 0.00624500 -0.00027069
v -0.00481775 0.00624500 -0.00133764
v -0.00486462 0.00624500 -0.00105176
v -0.00441756 0.00624500 -0.00234204
v -0.00381081 0.00624500 -0.00323693
v -0.00375970 0.00624500 -0.00328534
v -0.00421147 0.00624500 -0.00264600
v -0.00302587 0.00624500 -0.00398047
v -0.00277200 0.00624500 -0.00413321
v -0.00210433 0.00624500 -0.00453494
v -0.00209945 0.00624500 -0.00453788
v -0.00107485 0.00624500 -0.00488310
v -0.00068154 0.00624500 -0.00492588
v 0.00000000 0.00624500 -0.00500000
v 0.00107485 0.20000000 -0.00488310
v 0.00107485 0.20000000 -0.00488310
v -0.00000000 0.20000000 -0.00500000
v -0.00000000 0.20000000 -0.00500000
v 0.00209945 0.20000000 -0.00453788
v 0.00209945 0.20000000 -0.00453788
v 0.00302587 0.20000000 -0.00398047
v 0.00302587 0.20000000 -0.00398047
v 0.00381081 0.20000000 -0.00323693
v 0.00381081 0.20000000 -0.00323693
v 0.00441756 0.20000000 -0.00234204
v 0.00441756 0.20000000 -0.00234204
v 0.00481775 0.20000000 -0.00133764
v 0.00481775 0.20000000 -0.00133764
v 0.00499267 0.20000000 -0.00027069
v 0.00499267 0.20000000 -0.00027069
v 0.00493413 0.20000000 0.00080891
v 0.00493413 0.20000000 0.00080891
v 0.00464488 0.20000000 0.00185069
v 0.00464488 0.20000000 0.00185069
v 0.00413844 0.20000000 0.00280594
v 0.00413844 0.20000000 0.00280594
v 0.00343850 0.20000000 0.00362998
v 0.00343850 0.20000000 0.00362998
v 0.00257777 0.20000000 0.00428429
v 0.00257777 0.20000000 0.00428429
v 0.00159651 0.20000000 0.00473827
v 0.00159651 0.20000000 0.00473827
v 0.00054060 0.20000000 0.00497069
v 0.00054060 0.20000000 0.00497069
v -0.00054060 0.20000000 0.00497069
v -0.00054060 0.20000000 0.00497069
v -0.00159651 0.20000000 0.00473827
v -0.00159651 0.20000000 0.00473827
v -0.00257777 0.20000000 0.00428429
v -0.00257777 0.20000000 0.00428429
v -0.00343850 0.20000000 0.00362998
v -0.00343850 0.20000000 0.00362998
v -0.00413844 0.20000000 0.00280594
v -0.00413844 0.20000000 0.00280594
v -0.00464488 0.20000000 0.00185069
v -0.00464488 0.20000000 0.00185069
v -0.00493413 0.20000000 0.00080891
v -0.00493413 0.20000000 0.00080891
v -0.00499267 0.20000000 -0.00027069
v -0.00499267 0.20000000 -0.00027069
v -0.00481775 0.20000000 -0.00133764
v -0.00481775 0.20000000 -0.00133764
v -0.00441756 0.20000000 -0.00234204
v -0.00441756 0.20000000 -0.00234204
v -0.00381081 0.20000000 -0.00323693
v -0.00381081 0.20000000 -0.00323693
v -0.00302587 0.20000000 -0.00398047
v -0.00302587 0.20000000 -0.00398047
v -0.00209945 0.20000000 -0.00453788
v -0.00209945 0.20000000 -0.00453788
v -0.00107485 0.20000000 -0.00488310
v -0.00107485 0.20000000 -0.00488310
v 0.00000000 0.20000000 0.00000000
v 0.00500000 0.22210300 0.01076700
v 0.00500000 0.22210300 0.01076700
v 0.00500000 0.22210300 0.01076700
v -0.00500000 0.22210300 0.01076700
v -0.00500000 0.22210300 0.01076700
v -0.00500000 0.22210300 0.01076700
v -0.00500000 0.21479700 -0.00293959
v -0.00500000 0.21479700 -0.00293959
v -0.00500000 0.21479700 -0.00293959
v 0.00500000 0.21479700 -0.00293959
v 0.00500000 0.21479700 -0.00293959
v 0.00500000 0.21479700 -0.00293959
v -0.00500000 0.20753900 0.01076700
v -0.00500000 0.20753900 0.01076700
v -0.00500000 0.20753900 0.01076700
v 0.00500000 0.20753900 0.01076700
v 0.00500000 0.20753900 0.01076700
v 0.00500000 0.20753900 0.01076700
v -0.00500000 0.20405400 0.01076700
v -0.00500000 0.20405400 0.01076700
v -0.00500000 0.20405400 0.01076700
v 0.00500000 0.20405400 0.01076700
v 0.00500000 0.20405400 0.01076700
v 0.00500000 0.20405400 0.01076700
v -0.00500000 0.21318300 -0.00616079
v -0.00500000 0.21318300 -0.00616079
v -0.00500000 0.21318300 -0.00616079
v 0.00500000 0.21318300 -0.00616079
v 0.00500000 0.21318300 -0.00616079
v 0.00500000 0.21318300 -0.00616079
v -0.00500000 0.21318300 -0.01664020
v -0.00500000 0.21318300 -0.01664020
v -0.00500000 0.21318300 -0.01664020
v 0.00500000 0.21318300 -0.01664020
v 0.00500000 0.21318300 -0.01664020
v 0.00500000 0.21318300 -0.01664020
v -0.00500000 0.21640500 -0.01664020
v -0.00500000 0.21640500 -0.01664020
v -0.00500000 0.21640500 -0.01664020
v 0.00500000 0.21640500 -0.01664020
v 0.00500000 0.21640500 -0.01664020
v 0.00500000 0.21640500 -0.01664020
v 0.00500000 0.22555200 0.01076700
v 0.00500000 0.22555200 0.01076700
v 0.00500000 0.22555200 0.01076700
v 0.00500000 0.21640500 -0.00601083
v 0.00500000 0.21640500 -0.00601083
v 0.00500000 0.21640500 -0.00601083
v -0.00500000 0.21640500 -0.00601083
v -0.00500000 0.21640500 -0.00601083
v -0.00500000 0.21640500 -0.00601083
v -0.00500000 0.22555200 0.01076700
v -0.00500000 0.22555200 0.01076700
v -0.00500000 0.22555200 0.01076700
vn 0.13705300 0.00000000 -0.99056400
vn 0.21497000 0.00000000 -0.97662100
vn 0.41988900 0.00000000 -0.90757500
vn 0.42091700 0.00000000 -0.90709900
vn 0.55699700 0.00000000 -0.83051400
vn 0.60517400 0.00000000 -0.79609300
vn 0.76216200 0.00000000 -0.64738600
vn 0.84674600 0.00000000 -0.53199800
vn 0.75301300 0.00000000 -0.65800500
vn 0.88351200 0.00000000 -0.46840800
vn 0.96355000 0.00000000 -0.26752800
vn 0.99853300 0.00000000 -0.05413890
vn 0.97741600 0.00000000 -0.21132300
vn 0.98682700 0.00000000 0.16178200
vn 0.99302800 0.00000000 0.11788200
vn 0.92897700 0.00000000 0.37013800
vn 0.82768900 0.00000000 0.56118700
vn 0.75737100 0.00000000 0.65298500
vn 0.89682400 0.00000000 0.44238800
vn 0.68769900 0.00000000 0.72599500
vn 0.51555400 0.00000000 0.85685700
vn 0.42478500 0.00000000 0.90529400
vn 0.66448200 0.00000000 0.74730400
vn 0.31930200 0.00000000 0.94765300
vn 0.10811900 0.00000000 0.99413800
vn 0.13643900 0.00000000 0.99064900
vn -0.10811900 0.00000000 0.99413800
vn -0.13643900 0.00000000 0.99064900
vn -0.31930200 0.00000000 0.94765300
vn -0.51555400 0.00000000 0.85685700
vn -0.66448200 0.00000000 0.74730400
vn -0.42478500 0.00000000 0.90529400
vn -0.68769900 0.00000000 0.72599500
vn -0.82768900 0.00000000 0.56118700
vn -0.89682400 0.00000000 0.44238800
vn -0.75737100 0.00000000 0.65298500
vn -0.92897700 0.00000000 0.37013800
vn -0.98682700 0.00000000 0.16178200
vn -0.99302800 0.00000000 0.11788200
vn -0.99853300 0.00000000 -0.05413890
vn -0.96355000 0.00000000 -0.26752800
vn -0.97741600 0.00000000 -0.21132300
vn -0.88351200 0.00000000 -0.46840800
vn -0.76216200 0.00000000 -0.64738600
vn -0.75301300 0.00000000 -0.65800500
vn -0.84674600 0.00000000 -0.53199800
vn -0.60517400 0.00000000 -0.79609300
vn -0.55699700 0.00000000 -0.83051400
vn -0.42091700 0.00000000 -0.90709900
vn -0.41988900 0.00000000 -0.90757500
vn -0.21497000 0.00000000 -0.97662100
vn -0.13705300 0.00000000 -0.99056400
vn 0.00000000 0.00000000 -1.00000000
vn 0.00000000 1.00000000 0.00000000
vn 0.21497000 0.00000000 -0.97662100
vn 0.00000000 1.00000000 0.00000000
vn 0.00000000 0.00000000 -1.00000000
vn 0.00000000 1.00000000 0.00000000
vn 0.41988900 0.00000000 -0.90757500
vn 0.00000000 1.00000000 0.00000000
vn 0.60517400 0.00000000 -0.79609300
vn 0.00000000 1.00000000 0.00000000
vn 0.76216200 0.00000000 -0.64738600
vn 0.00000000 1.00000000 0.00000000
vn 0.88351200 0.00000000 -0.46840800
vn 0.96355000 0.00000000 -0.26752800
vn 0.00000000 1.00000000 0.00000000
vn 0.00000000 1.00000000 0.00000000
vn 0.99853300 0.00000000 -0.05413890
vn 0.00000000 1.00000000 0.00000000
vn 0.98682700 0.00000000 0.16178200
vn 0.00000000 1.00000000 0.00000000
vn 0.92897700 0.00000000 0.37013800
vn 0.82768900 0.00000000 0.56118700
vn 0.00000000 1.00000000 0.00000000
vn 0.68769900 0.00000000 0.72599500
vn 0.00000000 1.00000000 0.00000000
vn 0.00000000 1.00000000 0.00000000
vn 0.51555400 0.00000000 0.85685700
vn 0.00000000 1.00000000 0.00000000
vn 0.31930200 0.00000000 0.94765300
vn 0.00000000 1.00000000 0.00000000
vn 0.10811900 0.00000000 0.99413800
vn 0.00000000 1.00000000 0.00000000
vn -0.10811900 0.00000000 0.99413800
vn -0.31930200 0.00000000 0.94765300
vn 0.00000000 1.00000000 0.00000000
vn 0.00000000 1.00000000 0.00000000
vn -0.51555400 0.00000000 0.85685700
vn 0.00000000 1.00000000 0.00000000
vn -0.68769900 0.00000000 0.72599500
vn 0.00000000 1.00000000 0.00000000
vn -0.82768900 0.00000000 0.56118700
vn -0.92897700 0.00000000 0.37013800
vn 0.00000000 1.00000000 0.00000000
vn -0.98682700 0.00000000 0.16178200
vn 0.00000000 1.00000000 0.00000000
vn -0.99853300 0.00000000 -0.05413890
vn 0.00000000 1.00000000 0.00000000
vn 0.00000000 1.00000000 0.00000000
vn -0.96355000 0.00000000 -0.26752800
vn -0.88351200 0.00000000 -0.46840800
vn 0.00000000 1.00000000 0.00000000
vn -0.76216200 0.00000000 -0.64738600
vn 0.00000000 1.00000000 0.00000000
vn 0.00000000 1.00000000 0.00000000
vn -0.60517400 0.00000000 -0.79609300
vn 0.00000000 1.00000000 0.00000000
vn -0.41988900 0.00000000 -0.90757500
vn -0.21497000 0.00000000 -0.97662100
vn 0.00000000 1.00000000 0.00000000
vn 0.00000000 1.00000000 0.00000000
vn 0.00000000 0.00000000 1.00000000
vn 1.00000000 0.00000000 0.00000000
vn 0.00000000 -0.88246000 0.47038800
vn 0.00000000 0.00000000 1.00000000
vn 0.00000000 -0.88246000 0.47038800
vn -1.00000000 0.00000000 0.00000000
vn -1.00000000 0.00000000 0.00000000
vn 0.00000000 -0.88246000 0.47038800
vn 0.00000000 0.88374100 0.46797700
vn 0.00000000 0.88374100 0.46797700
vn 0.00000000 -0.88246000 0.47038800
vn 1.00000000 0.00000000 0.00000000
vn 0.00000000 0.00000000 1.00000000
vn 0.00000000 0.88374100 0.46797700
vn -1.00000000 0.00000000 0.00000000
vn 0.00000000 0.00000000 1.00000000
vn 1.00000000 0.00000000 0.00000000
vn 0.00000000 0.88374100 0.46797700
vn 0.00000000 0.00000000 1.00000000
vn 0.00000000 -0.88015000 -0.47469500
vn -1.00000000 0.00000000 0.00000000
vn 1.00000000 0.00000000 0.00000000
vn 0.00000000 0.00000000 1.00000000
vn 0.00000000 -0.88015000 -0.47469500
vn -1.00000000 0.00000000 0.00000000
vn 0.00000000 -1.00000000 0.00000000
vn 0.00000000 -0.88015000 -0.47469500
vn 1.00000000 0.00000000 0.00000000
vn 0.00000000 -1.00000000 0.00000000
vn 0.00000000 -0.88015000 -0.47469500
vn 0.00000000 0.00000000 -1.00000000
vn 0.00000000 -1.00000000 0.00000000
vn -1.00000000 0.00000000 0.00000000
vn 0.00000000 -1.00000000 0.00000000
vn 1.00000000 0.00000000 0.00000000
vn 0.00000000 0.00000000 -1.00000000
vn 0.00000000 1.00000000 0.00000000
vn -1.00000000 0.00000000 0.00000000
vn 0.00000000 0.00000000 -1.00000000
vn 1.00000000 0.00000000 0.00000000
vn 0.00000000 1.00000000 0.00000000
vn 0.00000000 0.00000000 -1.00000000
vn 1.00000000 0.00000000 0.00000000
vn 0.00000000 0.87798000 -0.47869800
vn 0.00000000 0.00000000 1.00000000
vn 0.00000000 1.00000000 0.00000000
vn 0.00000000 0.87798000 -0.47869800
vn 1.00000000 0.00000000 0.00000000
vn -1.00000000 0.00000000 0.00000000
vn 0.00000000 1.00000000 0.00000000
vn 0.00000000 0.87798000 -0.47869800
vn -1.00000000 0.00000000 0.00000000
vn 0.00000000 0.87798000 -0.47869800
vn 0.00000000 0.00000000 1.00000000
f 55//55 2//2 1//1
f 1//1 57//57 55//55
f 1//1 53//53 57//57
f 2//2 55//55 59//59
f 61//61 6//6 5//5
f 5//5 59//59 61//61
f 5//5 4//4 59//59
f 63//63 7//7 9//9
f 9//9 61//61 63//63
f 9//9 6//6 61//61
f 65//65 10//10 8//8
f 8//8 63//63 65//65
f 8//8 7//7 63//63
f 10//10 65//65 66//66
f 69//69 12//12 13//13
f 13//13 66//66 69//69
f 71//71 14//14 15//15
f 15//15 69//69 71//71
f 15//15 12//12 69//69
f 14//14 71//71 73//73
f 74//74 17//17 19//19
f 19//19 73//73 74//74
f 76//76 20//20 18//18
f 18//18 74//74 76//76
f 18//18 17//17 74//74
f 79//79 21//21 23//23
f 23//23 76//76 79//79
f 81//81 24//24 22//22
f 22//22 79//79 81//81
f 83//83 25//25 26//26
f 26//26 81//81 83//83
f 26//26 24//24 81//81
f 25//25 83//83 85//85
f 86//86 29//29 28//28
f 28//28 85//85 86//86
f 89//89 30//30 32//32
f 32//32 86//86 89//89
f 32//32 29//29 86//86
f 91//91 33//33 31//31
f 31//31 89//89 91//91
f 31//31 30//30 89//89
f 93//93 34//34 36//36
f 36//36 91//91 93//93
f 94//94 37//37 35//35
f 35//35 93//93 94//94
f 35//35 34//34 93//93
f 37//37 94//94 96//96
f 98//98 40//40 39//39
f 39//39 96//96 98//98
f 101//101 41//41 42//42
f 42//42 98//98 101//101
f 42//42 40//40 98//98
f 41//41 101//101 102//102
f 104//104 44//44 46//46
f 46//46 102//102 104//104
f 107//107 47//47 45//45
f 45//45 104//104 107//107
f 107//107 49//49 48//48
f 109//109 50//50 49//49
f 49//49 107//107 109//109
f 48//48 47//47 107//107
f 50//50 109//109 110//110
f 57//57 53//53 52//52
f 52//52 110//110 57//57
f 52//52 51//51 110//110
f 110//110 51//51 50//50
f 45//45 44//44 104//104
f 46//46 43//43 102//102
f 102//102 43//43 41//41
f 39//39 38//38 96//96
f 96//96 38//38 37//37
f 36//36 33//33 91//91
f 28//28 27//27 85//85
f 85//85 27//27 25//25
f 22//22 21//21 79//79
f 23//23 20//20 76//76
f 19//19 16//16 73//73
f 73//73 16//16 14//14
f 13//13 11//11 66//66
f 66//66 11//11 10//10
f 4//4 3//3 59//59
f 59//59 3//3 2//2
f 112//112 111//111 108//108
f 108//108 106//106 112//112
f 106//106 105//105 112//112
f 105//105 103//103 112//112
f 103//103 100//100 112//112
f 100//100 99//99 112//112
f 99//99 97//97 112//112
f 97//97 95//95 112//112
f 95//95 92//92 112//112
f 92//92 90//90 112//112
f 90//90 88//88 112//112
f 88//88 87//87 112//112
f 87//87 84//84 112//112
f 84//84 82//82 112//112
f 82//82 80//80 112//112
f 80//80 78//78 112//112
f 78//78 77//77 112//112
f 77//77 75//75 112//112
f 75//75 72//72 112//112
f 72//72 70//70 112//112
f 70//70 68//68 112//112
f 68//68 67//67 112//112
f 67//67 64//64 112//112
f 64//64 62//62 112//112
f 62//62 60//60 112//112
f 60//60 58//58 112//112
f 58//58 54//54 112//112
f 54//54 56//56 112//112
f 56//56 111//111 112//112
f 115//115 117//117 120//120
f 120//120 123//123 115//115
f 122//122 121//121 126//126
f 126//126 130//130 122//122
f 128//128 125//125 131//131
f 131//131 135//135 128//128
f 136//136 132//132 139//139
f 139//139 142//142 136//136
f 141//141 138//138 144//144
f 144//144 146//146 141//141
f 148//148 143//143 151//151
f 151//151 154//154 148//148
f 134//134 140//140 124//124
f 155//155 114//114 124//124
f 147//147 152//152 160//160
f 124//124 129//129 134//134
f 160//160 124//124 147//147
f 124//124 160//160 155//155
f 140//140 147//147 124//124
f 145//145 119//119 161//161
f 164//164 161//161 119//119
f 133//133 127//127 119//119
f 119//119 118//118 164//164
f 119//119 145//145 137//137
f 119//119 137//137 133//133
f 161//161 150//150 145//145
f 153//153 149//149 162//162
f 162//162 158//158 153//153
f 159//159 163//163 165//165
f 165//165 156//156 159//159
f 157//157 166//166 116//116
f 116//116 113//113 157//157
