mtllib material.mtl
usemtl material_0
v -0.00486193 0.00106897 0.00624500
v -0.00493413 0.00080891 0.00624500
v -0.00500000 0.00000000 0.00624500
v -0.00451846 0.00208915 0.00624500
v -0.00464488 0.00185069 0.00624500
v -0.00396372 0.00301164 0.00624500
v -0.00413844 0.00280594 0.00624500
v -0.00322363 0.00379331 0.00624500
v -0.00343850 0.00362998 0.00624500
v -0.00233281 0.00439761 0.00624500
v -0.00257777 0.00428429 0.00624500
v -0.00133292 0.00479629 0.00624500
v -0.00159651 0.00473827 0.00624500
v -0.00027069 0.00497069 0.00624500
v -0.00054060 0.00497069 0.00624500
v 0.00080419 0.00491267 0.00624500
v 0.00054060 0.00497069 0.00624500
v 0.00184146 0.00462494 0.00624500
v 0.00159651 0.00473827 0.00624500
v 0.00279264 0.00412095 0.00624500
v 0.00257777 0.00428429 0.00624500
v 0.00361323 0.00342427 0.00624500
v 0.00343850 0.00362998 0.00624500
v 0.00426487 0.00256747 0.00624500
v 0.00413844 0.00280594 0.00624500
v 0.00471709 0.00159063 0.00624500
v 0.00464488 0.00185069 0.00624500
v 0.00494874 0.00053940 0.00624500
v 0.00493413 0.00080891 0.00624500
v 0.00494900 -0.00053704 0.00624500
v 0.00499267 -0.00027069 0.00624500
v 0.00471785 -0.00158837 0.00624500
v 0.00481775 -0.00133764 0.00624500
v 0.00426610 -0.00256544 0.00624500
v 0.00441756 -0.00234204 0.00624500
v 0.00361486 -0.00342254 0.00624500
v 0.00381081 -0.00323693 0.00624500
v 0.00279460 -0.00411961 0.00624500
v 0.00302587 -0.00398047 0.00624500
v 0.00184367 -0.00462406 0.00624500
v 0.00209945 -0.00453788 0.00624500
v 0.00080653 -0.00491228 0.00624500
v 0.00107485 -0.00488310 0.00624500
v -0.00026832 -0.00497082 0.00624500
v 0.00000000 -0.00500000 0.00624500
v -0.00133062 -0.00479692 0.00624500
v -0.00107485 -0.00488310 0.00624500
v -0.00233071 -0.00439873 0.00624500
v -0.00209945 -0.00453788 0.00624500
v -0.00322182 -0.00379485 0.00624500
v -0.00302587 -0.00398047 0.00624500
v -0.00396227 -0.00301354 0.00624500
v -0.00381081 -0.00323693 0.00624500
v -0.00451746 -0.00209131 0.00624500
v -0.00441756 -0.00234204 0.00624500
v -0.00486142 -0.00107130 0.00624500
v -0.00481775 -0.00133764 0.00624500
v -0.00499267 -0.00027069 0.00624500
v 0.00624500 0.00107485 0.00488310
v 0.00624500 0.00209945 0.00453788
v 0.00624500 0.00302587 0.00398047
v 0.00624500 0.00329643 0.00372418
v 0.00624500 0.00249611 0.00429921
v 0.00624500 0.00381081 0.00323693
v 0.00624500 0.00441756 0.00234204
v 0.00624500 0.00423939 0.00260482
v 0.00624500 0.00481775 0.00133764
v 0.00624500 0.00447341 0.00220188
v 0.00624500 0.00499267 0.00027069
v 0.00624500 0.00494096 0.00058607
v 0.00624500 0.00493413 -0.00080891
v 0.00624500 0.00464488 -0.00185069
v 0.00624500 0.00423688 -0.00262027
v 0.00624500 0.00486687 -0.00105116
v 0.00624500 0.00413844 -0.00280594
v 0.00624500 0.00343850 -0.00362998
v 0.00624500 0.00422248 -0.00264742
v 0.00624500 0.00257777 -0.00428429
v 0.00624500 0.00249101 -0.00432443
v 0.00624500 0.00277685 -0.00413295
v 0.00624500 0.00159651 -0.00473827
v 0.00624500 0.00054060 -0.00497069
v 0.00624500 0.00102760 -0.00486349
v 0.00624500 -0.00054060 -0.00497069
v 0.00624500 -0.00033936 -0.00497069
v 0.00624500 -0.00159651 -0.00473827
v 0.00624500 -0.00257777 -0.00428429
v 0.00624500 -0.00277685 -0.00413295
v 0.00624500 -0.00173692 -0.00467330
v 0.00624500 -0.00413844 -0.00280594
v 0.00624500 -0.00331551 -0.00372347
v 0.00624500 -0.00343850 -0.00362998
v 0.00624500 -0.00464488 -0.00185069
v 0.00624500 -0.00422248 -0.00264742
v 0.00624500 -0.00493413 -0.00080891
v 0.00624500 -0.00499267 0.00027069
v 0.00624500 -0.00486687 -0.00105116
v 0.00624500 -0.00494096 0.00058607
v 0.00624500 -0.00481775 0.00133764
v 0.00624500 -0.00381081 0.00323693
v 0.00624500 -0.00331839 0.00370337
v 0.00624500 -0.00441756 0.00234204
v 0.00624500 -0.00447341 0.00220188
v 0.00624500 -0.00209945 0.00453788
v 0.00624500 -0.00302587 0.00398047
v 0.00624500 -0.00329643 0.00372418
v 0.00624500 -0.00107485 0.00488310
v 0.00624500 -0.00173966 0.00465910
v 0.00624500 0.00000000 0.00500000
v 0.00624500 -0.00033969 0.00496306
v 0.00068154 0.00624500 -0.00492588
v 0.00107485 0.00624500 -0.00488310
v 0.00209945 0.00624500 -0.00453788
v 0.00210433 0.00624500 -0.00453494
v 0.00277200 0.00624500 -0.00413321
v 0.00302587 0.00624500 -0.00398047
v 0.00381081 0.00624500 -0.00323693
v 0.00421147 0.00624500 -0.00264600
v 0.00375970 0.00624500 -0.00328534
v 0.00441756 0.00624500 -0.00234204
v 0.00481775 0.00624500 -0.00133764
v 0.00499267 0.00624500 -0.00027069
v 0.00486462 0.00624500 -0.00105176
v 0.00493413 0.00624500 0.00080891
v 0.00494616 0.00624500 0.00058716
v 0.00464488 0.00624500 0.00185069
v 0.00413844 0.00624500 0.00280594
v 0.00376476 0.00624500 0.00324587
v 0.00445974 0.00624500 0.00219991
v 0.00343850 0.00624500 0.00362998
v 0.00257777 0.00624500 0.00428429
v 0.00211151 0.00624500 0.00450000
v 0.00331270 0.00624500 0.00372560
v 0.00159651 0.00624500 0.00473827
v 0.00054060 0.00624500 0.00497069
v 0.00068036 0.00624500 0.00493993
v -0.00054060 0.00624500 0.00497069
v -0.00068036 0.00624500 0.00493993
v -0.00159651 0.00624500 0.00473827
v -0.00257777 0.00624500 0.00428429
v -0.00331270 0.00624500 0.00372560
v -0.00211151 0.00624500 0.00450000
v -0.00343850 0.00624500 0.00362998
v -0.00413844 0.00624500 0.00280594
v -0.00445974 0.00624500 0.00219991
v -0.00376476 0.00624500 0.00324587
v -0.00464488 0.00624500 0.00185069
v -0.00493413 0.00624500 0.00080891
v -0.00494616 0.00624500 0.00058716
v -0.00499267 0.00624500 -0.00027069
v -0.00481775 0.00624500 -0.00133764
v -0.00486462 0.00624500 -0.00105176
v -0.00441756 0.00624500 -0.00234204
v -0.00381081 0.00624500 -0.00323693
v -0.00375970 0.00624500 -0.00328534
v -0.00421147 0.00624500 -0.00264600
v -0.00302587 0.00624500 -0.00398047
v -0.00277200 0.00624500 -0.00413321
v -0.00210433 0.00624500 -0.00453494
v -0.00209945 0.00624500 -0.00453788
v -0.00107485 0.00624500 -0.00488310
v -0.00068154 0.00624500 -0.00492588
v 0.00000000 0.00624500 -0.00500000
v -0.00132622 -0.00602509 0.00509308
v 0.00000000 -0.00616932 0.00509308
v -0.00259043 -0.00559913 0.00509308
v -0.00373352 -0.00491136 0.00509308
v -0.00470203 -0.00399394 0.00509308
v -0.00545067 -0.00288976 0.00509308
v -0.00594445 -0.00165047 0.00509308
v -0.00616028 -0.00033400 0.00509308
v -0.00608805 0.00099809 0.00509308
v -0.00573116 0.00228350 0.00509308
v -0.00510628 0.00346215 0.00509308
v -0.00424264 0.00447890 0.00509308
v -0.00318062 0.00528623 0.00509308
v -0.00196987 0.00584638 0.00509308
v -0.00066702 0.00613316 0.00509308
v 0.00066702 0.00613316 0.00509308
v 0.00196987 0.00584638 0.00509308
v 0.00318062 0.00528623 0.00509308
v 0.00424264 0.00447890 0.00509308
v 0.00510628 0.00346215 0.00509308
v 0.00573116 0.00228350 0.00509308
v 0.00608805 0.00099809 0.00509308
v 0.00616028 -0.00033400 0.00509308
v 0.00594445 -0.00165047 0.00509308
v 0.00545067 -0.00288976 0.00509308
v 0.00470203 -0.00399394 0.00509308
v 0.00373352 -0.00491136 0.00509308
v 0.00259043 -0.00559913 0.00509308
v 0.00132622 -0.00602509 0.00509308
v 0.00000000 -0.00707894 0.00372675
v -0.00152176 -0.00691343 0.00372675
v -0.00297237 -0.00642467 0.00372675
v -0.00428399 -0.00563549 0.00372675
v -0.00539530 -0.00458281 0.00372675
v -0.00625433 -0.00331583 0.00372675
v -0.00682091 -0.00189382 0.00372675
v -0.00706855 -0.00038325 0.00372675
v -0.00698568 0.00114524 0.00372675
v -0.00657617 0.00262018 0.00372675
v -0.00585916 0.00397261 0.00372675
v -0.00486818 0.00513928 0.00372675
v 0.00364957 0.00606564 0.00372675
v 0.00486818 0.00513928 0.00372675
v 0.00623304 -0.00331324 0.00372433
v 0.00539530 -0.00458281 0.00372675
v 0.00428399 -0.00563549 0.00372675
v 0.00297237 -0.00642467 0.00372675
v 0.00152176 -0.00691343 0.00372675
v 0.00000000 -0.00769054 0.00220354
v -0.00165324 -0.00751074 0.00220354
v -0.00322917 -0.00697975 0.00220354
v -0.00465412 -0.00612239 0.00220354
v -0.00586144 -0.00497875 0.00220354
v -0.00679469 -0.00360231 0.00220354
v -0.00741022 -0.00205744 0.00220354
v -0.00767926 -0.00041636 0.00220354
v -0.00758923 0.00124419 0.00220354
v -0.00714433 0.00284656 0.00220354
v -0.00636538 0.00431583 0.00220354
v 0.00586144 -0.00497875 0.00220354
v 0.00465412 -0.00612239 0.00220354
v 0.00322917 -0.00697975 0.00220354
v 0.00165324 -0.00751074 0.00220354
v 0.00000000 -0.00797839 0.00058756
v -0.00171512 -0.00779186 0.00058756
v -0.00335004 -0.00724099 0.00058756
v -0.00482832 -0.00635154 0.00058756
v -0.00608083 -0.00516510 0.00058756
v -0.00704901 -0.00373715 0.00058756
v -0.00768758 -0.00213445 0.00058756
v -0.00796669 -0.00043194 0.00058756
v -0.00787329 0.00129076 0.00058756
v -0.00741174 0.00295311 0.00058756
v -0.00660363 0.00447737 0.00058756
v -0.00528878 0.00558330 0.00220354
v 0.00608083 -0.00516510 0.00058756
v 0.00482832 -0.00635154 0.00058756
v 0.00335004 -0.00724099 0.00058756
v 0.00171512 -0.00779186 0.00058756
v 0.00000000 -0.00793038 -0.00105315
v -0.00170480 -0.00774497 -0.00105315
v -0.00332988 -0.00719741 -0.00105315
v -0.00479926 -0.00631332 -0.00105315
v -0.00604423 -0.00513402 -0.00105315
v -0.00700658 -0.00371466 -0.00105315
v -0.00764131 -0.00212160 -0.00105315
v -0.00791875 -0.00042934 -0.00105315
v -0.00782591 0.00128299 -0.00105315
v -0.00736714 0.00293533 -0.00105315
v -0.00656389 0.00445042 -0.00105315
v -0.00548674 0.00579228 0.00058756
v 0.00604423 -0.00513402 -0.00105315
v 0.00479926 -0.00631332 -0.00105315
v 0.00332988 -0.00719741 -0.00105315
v 0.00170480 -0.00774497 -0.00105315
v 0.00000000 -0.00754851 -0.00264953
v -0.00162271 -0.00737203 -0.00264953
v -0.00316954 -0.00685084 -0.00264953
v -0.00456816 -0.00600932 -0.00264953
v -0.00575319 -0.00488680 -0.00264953
v -0.00666920 -0.00353579 -0.00264953
v -0.00727337 -0.00201944 -0.00264953
v -0.00753744 -0.00040867 -0.00264953
v -0.00744907 0.00122121 -0.00264953
v -0.00701239 0.00279399 -0.00264953
v -0.00624782 0.00423613 -0.00264953
v -0.00545372 0.00575742 -0.00105315
v 0.00575319 -0.00488680 -0.00264953
v 0.00456816 -0.00600932 -0.00264953
v 0.00316954 -0.00685084 -0.00264953
v 0.00162271 -0.00737203 -0.00264953
v 0.00000000 -0.00684887 -0.00413437
v -0.00147230 -0.00668875 -0.00413437
v -0.00287577 -0.00621586 -0.00413437
v -0.00414476 -0.00545234 -0.00413437
v -0.00521995 -0.00443386 -0.00413437
v -0.00605106 -0.00320807 -0.00413437
v -0.00659923 -0.00183227 -0.00413437
v -0.00683882 -0.00037079 -0.00413437
v -0.00675865 0.00110802 -0.00413437
v -0.00636244 0.00253503 -0.00413437
v -0.00566873 0.00384350 -0.00413437
v -0.00519111 0.00548018 -0.00264953
v 0.00470996 0.00497225 -0.00413437
v 0.00519111 0.00548018 -0.00264953
v 0.00623561 0.00423217 -0.00264727
v 0.00521995 -0.00443386 -0.00413437
v 0.00414476 -0.00545234 -0.00413437
v 0.00287577 -0.00621586 -0.00413437
v 0.00147230 -0.00668875 -0.00413437
v 0.00000000 -0.00586091 -0.00544516
v -0.00125992 -0.00572388 -0.00544516
v -0.00246093 -0.00531922 -0.00544516
v -0.00354687 -0.00466583 -0.00544516
v -0.00446696 -0.00379427 -0.00544516
v -0.00517818 -0.00274530 -0.00544516
v -0.00564728 -0.00156796 -0.00544516
v -0.00585231 -0.00031730 -0.00544516
v -0.00578370 0.00094819 -0.00544516
v -0.00544465 0.00216935 -0.00544516
v -0.00485101 0.00328907 -0.00544516
v -0.00470996 0.00497225 -0.00413437
v -0.00403054 0.00425499 -0.00544516
v -0.00353096 0.00586850 -0.00413437
v 0.00302161 0.00502196 -0.00544516
v 0.00353096 0.00586850 -0.00413437
v 0.00403054 0.00425499 -0.00544516
v 0.00566873 0.00384350 -0.00413437
v 0.00517818 -0.00274530 -0.00544516
v 0.00605106 -0.00320807 -0.00413437
v 0.00446696 -0.00379427 -0.00544516
v 0.00354687 -0.00466583 -0.00544516
v 0.00246093 -0.00531922 -0.00544516
v 0.00125992 -0.00572388 -0.00544516
v 0.00000000 -0.00462622 -0.00652672
v -0.00099450 -0.00451806 -0.00652672
v -0.00194250 -0.00419864 -0.00652672
v -0.00279967 -0.00368290 -0.00652672
v -0.00352593 -0.00299495 -0.00652672
v -0.00408732 -0.00216696 -0.00652672
v -0.00445759 -0.00123764 -0.00652672
v -0.00461943 -0.00025046 -0.00652672
v -0.00456527 0.00074844 -0.00652672
v -0.00429765 0.00171234 -0.00652672
v -0.00382907 0.00259617 -0.00652672
v -0.00318145 0.00335861 -0.00652672
v -0.00302161 0.00502196 -0.00544516
v -0.00238506 0.00396401 -0.00652672
v -0.00187140 0.00555411 -0.00544516
v -0.00147716 0.00438405 -0.00652672
v -0.00063368 0.00582655 -0.00544516
v -0.00050018 0.00459910 -0.00652672
v 0.00063368 0.00582655 -0.00544516
v 0.00050018 0.00459910 -0.00652672
v 0.00187140 0.00555411 -0.00544516
v 0.00147716 0.00438405 -0.00652672
v 0.00238506 0.00396401 -0.00652672
v 0.00318145 0.00335861 -0.00652672
v 0.00485101 0.00328907 -0.00544516
v 0.00382907 0.00259617 -0.00652672
v 0.00544465 0.00216935 -0.00544516
v 0.00429765 0.00171234 -0.00652672
v 0.00578370 0.00094819 -0.00544516
v 0.00456527 0.00074844 -0.00652672
v 0.00585231 -0.00031730 -0.00544516
v 0.00461943 -0.00025046 -0.00652672
v 0.00564728 -0.00156796 -0.00544516
v 0.00445759 -0.00123764 -0.00652672
v 0.00408732 -0.00216696 -0.00652672
v 0.00352593 -0.00299495 -0.00652672
v 0.00279967 -0.00368290 -0.00652672
v 0.00194250 -0.00419864 -0.00652672
v 0.00099450 -0.00451806 -0.00652672
v 0.00000000 -0.00319677 -0.00733353
v -0.00068721 -0.00312203 -0.00733353
v -0.00134229 -0.00290131 -0.00733353
v -0.00193460 -0.00254493 -0.00733353
v -0.00243646 -0.00206955 -0.00733353
v -0.00282439 -0.00149740 -0.00733353
v -0.00308025 -0.00085523 -0.00733353
v -0.00319209 -0.00017307 -0.00733353
v -0.00315466 0.00051718 -0.00733353
v -0.00296973 0.00118325 -0.00733353
v -0.00264593 0.00179399 -0.00733353
v -0.00219842 0.00232084 -0.00733353
v -0.00164811 0.00273918 -0.00733353
v -0.00102073 0.00302943 -0.00733353
v -0.00034563 0.00317803 -0.00733353
v 0.00034563 0.00317803 -0.00733353
v 0.00102073 0.00302943 -0.00733353
v 0.00164811 0.00273918 -0.00733353
v 0.00219842 0.00232084 -0.00733353
v 0.00264593 0.00179399 -0.00733353
v 0.00296973 0.00118325 -0.00733353
v 0.00315466 0.00051718 -0.00733353
v 0.00319209 -0.00017307 -0.00733353
v 0.00308025 -0.00085523 -0.00733353
v 0.00282439 -0.00149740 -0.00733353
v 0.00243646 -0.00206955 -0.00733353
v 0.00193460 -0.00254493 -0.00733353
v 0.00134229 -0.00290131 -0.00733353
v 0.00068721 -0.00312203 -0.00733353
v 0.00000000 -0.00163275 -0.00783161
v -0.00035099 -0.00159458 -0.00783161
v -0.00068558 -0.00148185 -0.00783161
v -0.00098810 -0.00129982 -0.00783161
v -0.00124442 -0.00105702 -0.00783161
v -0.00144256 -0.00076480 -0.00783161
v -0.00157324 -0.00043681 -0.00783161
v -0.00163036 -0.00008840 -0.00783161
v -0.00161125 0.00026415 -0.00783161
v -0.00151679 0.00060434 -0.00783161
v -0.00135141 0.00091628 -0.00783161
v -0.00112284 0.00118537 -0.00783161
v -0.00084177 0.00139904 -0.00783161
v -0.00052134 0.00154728 -0.00783161
v -0.00017653 0.00162318 -0.00783161
v 0.00017653 0.00162318 -0.00783161
v 0.00052134 0.00154728 -0.00783161
v 0.00084177 0.00139904 -0.00783161
v 0.00112284 0.00118537 -0.00783161
v 0.00135141 0.00091628 -0.00783161
v 0.00151679 0.00060434 -0.00783161
v 0.00161125 0.00026415 -0.00783161
v 0.00163036 -0.00008840 -0.00783161
v 0.00157324 -0.00043681 -0.00783161
v 0.00144256 -0.00076480 -0.00783161
v 0.00124442 -0.00105702 -0.00783161
v 0.00098810 -0.00129982 -0.00783161
v 0.00068558 -0.00148185 -0.00783161
v 0.00035099 -0.00159458 -0.00783161
v 0.00585916 0.00397261 0.00372675
v 0.00528878 0.00558330 0.00220354
v 0.00548674 0.00579228 0.00058756
v 0.00545372 0.00575742 -0.00105315
v -0.00364957 0.00606564 0.00372675
v 0.00000000 -0.00000000 -0.00800000
vn -0.60878300 0.13385100 0.78196400
vn -0.61676700 0.10111400 0.78062500
vn -0.62500000 0.00000000 0.78062500
vn -0.56577600 0.26159200 0.78196400
vn -0.58061000 0.23133600 0.78062500
vn -0.49631400 0.37710100 0.78196400
vn -0.51730600 0.35074200 0.78062500
vn -0.40364500 0.47497800 0.78196400
vn -0.42981200 0.45374700 0.78062500
vn -0.29210200 0.55064500 0.78196400
vn -0.32222100 0.53553600 0.78062500
vn -0.16690000 0.60056400 0.78196400
vn -0.19956300 0.59228300 0.78062500
vn -0.03389490 0.62240200 0.78196400
vn -0.06757440 0.62133600 0.78062500
vn 0.10069600 0.61513700 0.78196400
vn 0.06757440 0.62133600 0.78062500
vn 0.23057800 0.57910900 0.78196400
vn 0.19956300 0.59228300 0.78062500
vn 0.34967800 0.51600200 0.78196400
vn 0.32222100 0.53553600 0.78062500
vn 0.45242800 0.42876800 0.78196400
vn 0.42981200 0.45374700 0.78062500
vn 0.53402300 0.32148500 0.78196400
vn 0.51730600 0.35074200 0.78062500
vn 0.59064700 0.19917000 0.78196400
vn 0.58061000 0.23133600 0.78062500
vn 0.61965400 0.06754130 0.78196400
vn 0.61676700 0.10111400 0.78062500
vn 0.61968600 -0.06724510 0.78196400
vn 0.62408300 -0.03383680 0.78062500
vn 0.59074300 -0.19888700 0.78196400
vn 0.60221900 -0.16720500 0.78062500
vn 0.53417700 -0.32122900 0.78196400
vn 0.55219500 -0.29275500 0.78062500
vn 0.45263300 -0.42855100 0.78196400
vn 0.47635100 -0.40461600 0.78062500
vn 0.34992500 -0.51583500 0.78196400
vn 0.37823400 -0.49755800 0.78062500
vn 0.23085400 -0.57899800 0.78196400
vn 0.26243100 -0.56723500 0.78062500
vn 0.10099000 -0.61508900 0.78196400
vn 0.13435700 -0.61038800 0.78062500
vn -0.03359730 -0.62241800 0.78196400
vn 0.00000000 -0.62500000 0.78062500
vn -0.16661300 -0.60064400 0.78196400
vn -0.13435700 -0.61038800 0.78062500
vn -0.29183900 -0.55078400 0.78196400
vn -0.26243100 -0.56723500 0.78062500
vn -0.40341800 -0.47517000 0.78196400
vn -0.37823400 -0.49755800 0.78062500
vn -0.49613400 -0.37733800 0.78196400
vn -0.47635100 -0.40461600 0.78062500
vn -0.56565100 -0.26186200 0.78196400
vn -0.55219500 -0.29275500 0.78062500
vn -0.60871900 -0.13414200 0.78196400
vn -0.60221900 -0.16720500 0.78062500
vn -0.62408300 -0.03383680 0.78062500
vn 0.78062500 0.13435700 0.61038800
vn 0.78062500 0.26243100 0.56723500
vn 0.78062500 0.37823400 0.49755800
vn 0.78224000 0.41290600 0.46648600
vn 0.78237600 0.31271400 0.53860700
vn 0.78062500 0.47635100 0.40461600
vn 0.78062500 0.55219500 0.29275500
vn 0.78210800 0.53093000 0.32622100
vn 0.78062500 0.60221900 0.16720500
vn 0.78148200 0.55979000 0.27553700
vn 0.78062500 0.62408300 0.03383680
vn 0.78211300 0.61879800 0.07339840
vn 0.78062500 0.61676700 -0.10111400
vn 0.78062500 0.58061000 -0.23133600
vn 0.78174300 0.53036900 -0.32800300
vn 0.78190000 0.60935300 -0.13160900
vn 0.78062500 0.51730600 -0.35074200
vn 0.78062500 0.42981200 -0.45374700
vn 0.78161300 0.52847900 -0.33134600
vn 0.78062500 0.32222100 -0.53553600
vn 0.78120000 0.31160500 -0.54095200
vn 0.78189500 0.34767100 -0.51746000
vn 0.78062500 0.19956300 -0.59228300
vn 0.78062500 0.06757440 -0.62133600
vn 0.78240200 0.12874300 -0.60932100
vn 0.78062500 -0.06757440 -0.62133600
vn 0.78170700 -0.04247900 -0.62219800
vn 0.78062500 -0.19956300 -0.59228300
vn 0.78062500 -0.32222100 -0.53553600
vn 0.78189500 -0.34767100 -0.51746000
vn 0.78150000 -0.21735900 -0.58481800
vn 0.78062500 -0.51730600 -0.35074200
vn 0.78149900 -0.41490300 -0.46595500
vn 0.78062500 -0.42981200 -0.45374700
vn 0.78062500 -0.58061000 -0.23133600
vn 0.78161300 -0.52847900 -0.33134600
vn 0.78062500 -0.61676700 -0.10111400
vn 0.78062500 -0.62408300 0.03383680
vn 0.78190000 -0.60935300 -0.13160900
vn 0.78211300 -0.61879800 0.07339840
vn 0.78062500 -0.60221900 0.16720500
vn 0.78062500 -0.47635100 0.40461600
vn 0.78229700 -0.41568800 0.46391300
vn 0.78062500 -0.55219500 0.29275500
vn 0.78148200 -0.55979000 0.27553700
vn 0.78062500 -0.26243100 0.56723500
vn 0.78062500 -0.37823400 0.49755800
vn 0.78224000 -0.41290600 0.46648600
vn 0.78062500 -0.13435700 0.61038800
vn 0.78225400 -0.21791100 0.58360400
vn 0.78062500 0.00000000 0.62500000
vn 0.78217000 -0.04254560 0.62161000
vn 0.08537330 0.78228400 -0.61704400
vn 0.13435700 0.78062500 -0.61038800
vn 0.26243100 0.78062500 -0.56723500
vn 0.26305400 0.78066200 -0.56689400
vn 0.34713200 0.78204700 -0.51759300
vn 0.37823400 0.78062500 -0.49755800
vn 0.47635100 0.78062500 -0.40461600
vn 0.52751500 0.78222900 -0.33143000
vn 0.47022500 0.78105900 -0.41089600
vn 0.55219500 0.78062500 -0.29275500
vn 0.60221900 0.78062500 -0.16720500
vn 0.62408300 0.78062500 -0.03383680
vn 0.60916900 0.78202700 -0.13170600
vn 0.61676700 0.78062500 0.10111400
vn 0.61919300 0.78179100 0.07350450
vn 0.58061000 0.78062500 0.23133600
vn 0.51730600 0.78062500 0.35074200
vn 0.47166800 0.78240500 0.40665900
vn 0.55865200 0.78228300 0.27557300
vn 0.42981200 0.78062500 0.45374700
vn 0.32222100 0.78062500 0.53553600
vn 0.26454200 0.78240900 0.56378600
vn 0.41456100 0.78151600 0.46623200
vn 0.19956300 0.78062500 0.59228300
vn 0.06757440 0.78062500 0.62133600
vn 0.08513420 0.78144500 0.61813900
vn -0.06757440 0.78062500 0.62133600
vn -0.08513420 0.78144500 0.61813900
vn -0.19956300 0.78062500 0.59228300
vn -0.32222100 0.78062500 0.53553600
vn -0.41456100 0.78151600 0.46623200
vn -0.26454200 0.78240900 0.56378600
vn -0.42981200 0.78062500 0.45374700
vn -0.51730600 0.78062500 0.35074200
vn -0.55865200 0.78228300 0.27557300
vn -0.47166800 0.78240500 0.40665900
vn -0.58061000 0.78062500 0.23133600
vn -0.61676700 0.78062500 0.10111400
vn -0.61919300 0.78179100 0.07350450
vn -0.62408300 0.78062500 -0.03383680
vn -0.60221900 0.78062500 -0.16720500
vn -0.60916900 0.78202700 -0.13170600
vn -0.55219500 0.78062500 -0.29275500
vn -0.47635100 0.78062500 -0.40461600
vn -0.47022500 0.78105900 -0.41089600
vn -0.52751500 0.78222900 -0.33143000
vn -0.37823400 0.78062500 -0.49755800
vn -0.34713200 0.78204700 -0.51759300
vn -0.26305400 0.78066200 -0.56689400
vn -0.26243100 0.78062500 -0.56723500
vn -0.13435700 0.78062500 -0.61038800
vn -0.08537330 0.78228400 -0.61704400
vn -0.00000000 0.78062500 -0.62500000
vn -0.16577800 -0.75313600 0.63663500
vn 0.00000000 -0.77116600 0.63663500
vn -0.32380400 -0.69989100 0.63663500
vn -0.46669000 -0.61392000 0.63663500
vn -0.58775300 -0.49924200 0.63663500
vn -0.68133400 -0.36122000 0.63663500
vn -0.74305700 -0.20630900 0.63663500
vn -0.77003500 -0.04175010 0.63663500
vn -0.76100700 0.12476100 0.63663500
vn -0.71639500 0.28543800 0.63663500
vn -0.63828500 0.43276800 0.63663500
vn -0.53033000 0.55986300 0.63663500
vn -0.39757700 0.66077900 0.63663500
vn -0.24623400 0.73079700 0.63663500
vn -0.08337770 0.76664500 0.63663500
vn 0.08337770 0.76664500 0.63663500
vn 0.24623400 0.73079700 0.63663500
vn 0.39757700 0.66077900 0.63663500
vn 0.53033000 0.55986300 0.63663500
vn 0.63828500 0.43276800 0.63663500
vn 0.71639500 0.28543800 0.63663500
vn 0.76100700 0.12476100 0.63663500
vn 0.77003500 -0.04175010 0.63663500
vn 0.74305700 -0.20630900 0.63663500
vn 0.68133400 -0.36122000 0.63663500
vn 0.58775300 -0.49924200 0.63663500
vn 0.46669000 -0.61392000 0.63663500
vn 0.32380400 -0.69989100 0.63663500
vn 0.16577800 -0.75313600 0.63663500
vn 0.00000000 -0.88486700 0.46584400
vn -0.19022000 -0.86417900 0.46584400
vn -0.37154600 -0.80308400 0.46584400
vn -0.53549900 -0.70443600 0.46584400
vn -0.67441200 -0.57285100 0.46584400
vn -0.78179100 -0.41447900 0.46584400
vn -0.85261400 -0.23672700 0.46584400
vn -0.88356900 -0.04790570 0.46584400
vn -0.87321000 0.14315600 0.46584400
vn -0.82202100 0.32752300 0.46584400
vn -0.73239500 0.49657600 0.46584400
vn -0.60852300 0.64240900 0.46584400
vn 0.45619700 0.75820500 0.46584400
vn 0.60852300 0.64240900 0.46584400
vn 0.78096900 -0.41513200 0.46664000
vn 0.67441200 -0.57285100 0.46584400
vn 0.53549900 -0.70443600 0.46584400
vn 0.37154600 -0.80308400 0.46584400
vn 0.19022000 -0.86417900 0.46584400
vn 0.00000000 -0.96131800 0.27544200
vn -0.20665500 -0.93884300 0.27544200
vn -0.40364700 -0.87246800 0.27544200
vn -0.58176500 -0.76529800 0.27544200
vn -0.73268000 -0.62234400 0.27544200
vn -0.84933600 -0.45028900 0.27544200
vn -0.92627800 -0.25718000 0.27544200
vn -0.95990800 -0.05204470 0.27544200
vn -0.94865400 0.15552400 0.27544200
vn -0.89304200 0.35582000 0.27544200
vn -0.79567200 0.53947900 0.27544200
vn 0.73268000 -0.62234400 0.27544200
vn 0.58176500 -0.76529800 0.27544200
vn 0.40364700 -0.87246800 0.27544200
vn 0.20665500 -0.93884300 0.27544200
vn 0.00000000 -0.99729900 0.07344490
vn -0.21439000 -0.97398300 0.07344490
vn -0.41875500 -0.90512400 0.07344490
vn -0.60354000 -0.79394300 0.07344490
vn -0.76010400 -0.64563800 0.07344490
vn -0.88112600 -0.46714300 0.07344490
vn -0.96094800 -0.26680600 0.07344490
vn -0.99583700 -0.05399270 0.07344490
vn -0.98416100 0.16134500 0.07344490
vn -0.92646800 0.36913900 0.07344490
vn -0.82545400 0.55967100 0.07344490
vn -0.66109800 0.69791200 0.27544200
vn 0.76010400 -0.64563800 0.07344490
vn 0.60354000 -0.79394300 0.07344490
vn 0.41875500 -0.90512400 0.07344490
vn 0.21439000 -0.97398300 0.07344490
vn 0.00000000 -0.99129700 -0.13164400
vn -0.21310000 -0.96812100 -0.13164400
vn -0.41623500 -0.89967700 -0.13164400
vn -0.59990700 -0.78916500 -0.13164400
vn -0.75552900 -0.64175200 -0.13164400
vn -0.87582300 -0.46433200 -0.13164400
vn -0.95516400 -0.26520000 -0.13164400
vn -0.98984300 -0.05366770 -0.13164400
vn -0.97823800 0.16037400 -0.13164400
vn -0.92089200 0.36691700 -0.13164400
vn -0.82048600 0.55630300 -0.13164400
vn -0.68584200 0.72403500 0.07344490
vn 0.75552900 -0.64175200 -0.13164400
vn 0.59990700 -0.78916500 -0.13164400
vn 0.41623500 -0.89967700 -0.13164400
vn 0.21310000 -0.96812100 -0.13164400
vn 0.00000000 -0.94356400 -0.33119100
vn -0.20283800 -0.92150400 -0.33119100
vn -0.39619200 -0.85635500 -0.33119100
vn -0.57102000 -0.75116400 -0.33119100
vn -0.71914800 -0.61085000 -0.33119100
vn -0.83365000 -0.44197300 -0.33119100
vn -0.90917100 -0.25243000 -0.33119100
vn -0.94218000 -0.05108350 -0.33119100
vn -0.93113400 0.15265200 -0.33119100
vn -0.87654900 0.34924900 -0.33119100
vn -0.78097700 0.52951600 -0.33119100
vn -0.68171400 0.71967700 -0.13164400
vn 0.71914800 -0.61085000 -0.33119100
vn 0.57102000 -0.75116400 -0.33119100
vn 0.39619200 -0.85635500 -0.33119100
vn 0.20283800 -0.92150400 -0.33119100
vn 0.00000000 -0.85610900 -0.51679600
vn -0.18403800 -0.83609300 -0.51679600
vn -0.35947100 -0.77698300 -0.51679600
vn -0.51809500 -0.68154200 -0.51679600
vn -0.65249300 -0.55423300 -0.51679600
vn -0.75638200 -0.40100800 -0.51679600
vn -0.82490300 -0.22903300 -0.51679600
vn -0.85485300 -0.04634880 -0.51679600
vn -0.84483100 0.13850300 -0.51679600
vn -0.79530500 0.31687800 -0.51679600
vn -0.70859200 0.48043700 -0.51679600
vn -0.64888800 0.68502300 -0.33119100
vn 0.58874500 0.62153100 -0.51679600
vn 0.64888800 0.68502300 -0.33119100
vn 0.78065900 0.52984100 -0.33142100
vn 0.65249300 -0.55423300 -0.51679600
vn 0.51809500 -0.68154200 -0.51679600
vn 0.35947100 -0.77698300 -0.51679600
vn 0.18403800 -0.83609300 -0.51679600
vn 0.00000000 -0.73261300 -0.68064500
vn -0.15749000 -0.71548500 -0.68064500
vn -0.30761600 -0.66490200 -0.68064500
vn -0.44335900 -0.58322800 -0.68064500
vn -0.55837000 -0.47428400 -0.68064500
vn -0.64727300 -0.34316200 -0.68064500
vn -0.70591000 -0.19599500 -0.68064500
vn -0.73153900 -0.03966290 -0.68064500
vn -0.72296200 0.11852400 -0.68064500
vn -0.68058100 0.27116800 -0.68064500
vn -0.60637600 0.41113300 -0.68064500
vn -0.58874500 0.62153100 -0.51679600
vn -0.50381800 0.53187400 -0.68064500
vn -0.44137000 0.73356300 -0.51679600
vn 0.37770200 0.62774500 -0.68064500
vn 0.44137000 0.73356300 -0.51679600
vn 0.50381800 0.53187400 -0.68064500
vn 0.70859200 0.48043700 -0.51679600
vn 0.64727300 -0.34316200 -0.68064500
vn 0.75638200 -0.40100800 -0.51679600
vn 0.55837000 -0.47428400 -0.68064500
vn 0.44335900 -0.58322800 -0.68064500
vn 0.30761600 -0.66490200 -0.68064500
vn 0.15749000 -0.71548500 -0.68064500
vn 0.00000000 -0.57827700 -0.81584000
vn -0.12431200 -0.56475700 -0.81584000
vn -0.24281200 -0.52483000 -0.81584000
vn -0.34995800 -0.46036200 -0.81584000
vn -0.44074100 -0.37436900 -0.81584000
vn -0.51091500 -0.27087000 -0.81584000
vn -0.55719900 -0.15470600 -0.81584000
vn -0.57742900 -0.03130730 -0.81584000
vn -0.57065900 0.09355480 -0.81584000
vn -0.53720600 0.21404200 -0.81584000
vn -0.47863400 0.32452200 -0.81584000
vn -0.39768100 0.41982700 -0.81584000
vn -0.37770200 0.62774500 -0.68064500
vn -0.29813300 0.49550100 -0.81584000
vn -0.23392500 0.69426300 -0.68064500
vn -0.18464500 0.54800600 -0.81584000
vn -0.07920940 0.72831900 -0.68064500
vn -0.06252280 0.57488700 -0.81584000
vn 0.07920940 0.72831900 -0.68064500
vn 0.06252280 0.57488700 -0.81584000
vn 0.23392500 0.69426300 -0.68064500
vn 0.18464500 0.54800600 -0.81584000
vn 0.29813300 0.49550100 -0.81584000
vn 0.39768100 0.41982700 -0.81584000
vn 0.60637600 0.41113300 -0.68064500
vn 0.47863400 0.32452200 -0.81584000
vn 0.68058100 0.27116800 -0.68064500
vn 0.53720600 0.21404200 -0.81584000
vn 0.72296200 0.11852400 -0.68064500
vn 0.57065900 0.09355480 -0.81584000
vn 0.73153900 -0.03966290 -0.68064500
vn 0.57742900 -0.03130730 -0.81584000
vn 0.70591000 -0.19599500 -0.68064500
vn 0.55719900 -0.15470600 -0.81584000
vn 0.51091500 -0.27087000 -0.81584000
vn 0.44074100 -0.37436900 -0.81584000
vn 0.34995800 -0.46036200 -0.81584000
vn 0.24281200 -0.52483000 -0.81584000
vn 0.12431200 -0.56475700 -0.81584000
vn 0.00000000 -0.39959700 -0.91669100
vn -0.08590150 -0.39025400 -0.91669100
vn -0.16778600 -0.36266400 -0.91669100
vn -0.24182600 -0.31811600 -0.91669100
vn -0.30455700 -0.25869300 -0.91669100
vn -0.35304800 -0.18717400 -0.91669100
vn -0.38503100 -0.10690300 -0.91669100
vn -0.39901100 -0.02163370 -0.91669100
vn -0.39433300 0.06464760 -0.91669100
vn -0.37121600 0.14790600 -0.91669100
vn -0.33074200 0.22424900 -0.91669100
vn -0.27480200 0.29010500 -0.91669100
vn -0.20601400 0.34239700 -0.91669100
vn -0.12759200 0.37867900 -0.91669100
vn -0.04320400 0.39725400 -0.91669100
vn 0.04320400 0.39725400 -0.91669100
vn 0.12759200 0.37867900 -0.91669100
vn 0.20601400 0.34239700 -0.91669100
vn 0.27480200 0.29010500 -0.91669100
vn 0.33074200 0.22424900 -0.91669100
vn 0.37121600 0.14790600 -0.91669100
vn 0.39433300 0.06464760 -0.91669100
vn 0.39901100 -0.02163370 -0.91669100
vn 0.38503100 -0.10690300 -0.91669100
vn 0.35304800 -0.18717400 -0.91669100
vn 0.30455700 -0.25869300 -0.91669100
vn 0.24182600 -0.31811600 -0.91669100
vn 0.16778600 -0.36266400 -0.91669100
vn 0.08590150 -0.39025400 -0.91669100
vn 0.00000000 -0.20409400 -0.97895100
vn -0.04387420 -0.19932300 -0.97895100
vn -0.08569700 -0.18523100 -0.97895100
vn -0.12351300 -0.16247800 -0.97895100
vn -0.15555300 -0.13212800 -0.97895100
vn -0.18032000 -0.09559950 -0.97895100
vn -0.19665500 -0.05460100 -0.97895100
vn -0.20379500 -0.01104940 -0.97895100
vn -0.20140600 0.03301880 -0.97895100
vn -0.18959900 0.07554310 -0.97895100
vn -0.16892700 0.11453500 -0.97895100
vn -0.14035600 0.14817200 -0.97895100
vn -0.10522200 0.17488000 -0.97895100
vn -0.06516760 0.19341100 -0.97895100
vn -0.02206650 0.20289800 -0.97895100
vn 0.02206650 0.20289800 -0.97895100
vn 0.06516760 0.19341100 -0.97895100
vn 0.10522200 0.17488000 -0.97895100
vn 0.14035600 0.14817200 -0.97895100
vn 0.16892700 0.11453500 -0.97895100
vn 0.18959900 0.07554310 -0.97895100
vn 0.20140600 0.03301880 -0.97895100
vn 0.20379500 -0.01104940 -0.97895100
vn 0.19665500 -0.05460100 -0.97895100
vn 0.18032000 -0.09559950 -0.97895100
vn 0.15555300 -0.13212800 -0.97895100
vn 0.12351300 -0.16247800 -0.97895100
vn 0.08569700 -0.18523100 -0.97895100
vn 0.04387420 -0.19932300 -0.97895100
vn 0.73239500 0.49657600 0.46584400
vn 0.66109800 0.69791200 0.27544200
vn 0.68584200 0.72403500 0.07344490
vn 0.68171400 0.71967700 -0.13164400
vn -0.45619700 0.75820500 0.46584400
vn 0.00000000 -0.00000000 -1.00000000
f 164//164 165//165 44//44
f 165//165 45//45 44//44
f 166//166 164//164 46//46
f 164//164 47//47 46//46
f 167//167 166//166 48//48
f 166//166 49//49 48//48
f 168//168 167//167 50//50
f 167//167 51//51 50//50
f 169//169 168//168 52//52
f 168//168 53//53 52//52
f 170//170 169//169 54//54
f 169//169 55//55 54//54
f 171//171 170//170 56//56
f 170//170 57//57 56//56
f 172//172 171//171 3//3
f 171//171 58//58 3//3
f 173//173 172//172 1//1
f 172//172 2//2 1//1
f 174//174 173//173 4//4
f 173//173 5//5 4//4
f 175//175 174//174 6//6
f 174//174 7//7 6//6
f 176//176 175//175 8//8
f 175//175 9//9 8//8
f 177//177 176//176 10//10
f 176//176 11//11 10//10
f 178//178 177//177 12//12
f 177//177 13//13 12//12
f 179//179 178//178 14//14
f 178//178 15//15 14//14
f 180//180 179//179 16//16
f 179//179 17//17 16//16
f 181//181 180//180 18//18
f 180//180 19//19 18//18
f 182//182 181//181 20//20
f 181//181 21//21 20//20
f 183//183 182//182 22//22
f 182//182 23//23 22//22
f 184//184 183//183 24//24
f 183//183 25//25 24//24
f 185//185 184//184 26//26
f 184//184 27//27 26//26
f 186//186 185//185 28//28
f 185//185 29//29 28//28
f 187//187 186//186 30//30
f 186//186 31//31 30//30
f 188//188 187//187 32//32
f 187//187 33//33 32//32
f 189//189 188//188 34//34
f 188//188 35//35 34//34
f 190//190 189//189 36//36
f 189//189 37//37 36//36
f 191//191 190//190 38//38
f 190//190 39//39 38//38
f 192//192 191//191 40//40
f 191//191 41//41 40//40
f 165//165 192//192 42//42
f 192//192 43//43 42//42
f 193//193 165//165 164//164
f 194//194 164//164 166//166
f 195//195 166//166 167//167
f 196//196 167//167 168//168
f 197//197 168//168 169//169
f 198//198 169//169 170//170
f 199//199 170//170 171//171
f 200//200 171//171 172//172
f 201//201 172//172 173//173
f 202//202 173//173 174//174
f 203//203 174//174 175//175
f 204//204 175//175 176//176
f 205//205 181//181 182//182
f 206//206 182//182 183//183
f 207//207 188//188 189//189
f 208//208 189//189 190//190
f 209//209 190//190 191//191
f 210//210 191//191 192//192
f 211//211 192//192 165//165
f 212//212 193//193 194//194
f 213//213 194//194 195//195
f 214//214 195//195 196//196
f 215//215 196//196 197//197
f 216//216 197//197 198//198
f 217//217 198//198 199//199
f 218//218 199//199 200//200
f 219//219 200//200 201//201
f 220//220 201//201 202//202
f 221//221 202//202 203//203
f 222//222 203//203 204//204
f 223//223 208//208 209//209
f 224//224 209//209 210//210
f 225//225 210//210 211//211
f 226//226 211//211 193//193
f 227//227 212//212 213//213
f 228//228 213//213 214//214
f 229//229 214//214 215//215
f 230//230 215//215 216//216
f 231//231 216//216 217//217
f 232//232 217//217 218//218
f 233//233 218//218 219//219
f 234//234 219//219 220//220
f 235//235 220//220 221//221
f 236//236 221//221 222//222
f 237//237 222//222 238//238
f 239//239 223//223 224//224
f 240//240 224//224 225//225
f 241//241 225//225 226//226
f 242//242 226//226 212//212
f 243//243 227//227 228//228
f 244//244 228//228 229//229
f 245//245 229//229 230//230
f 246//246 230//230 231//231
f 247//247 231//231 232//232
f 248//248 232//232 233//233
f 249//249 233//233 234//234
f 250//250 234//234 235//235
f 251//251 235//235 236//236
f 252//252 236//236 237//237
f 253//253 237//237 254//254
f 255//255 239//239 240//240
f 256//256 240//240 241//241
f 257//257 241//241 242//242
f 258//258 242//242 227//227
f 259//259 243//243 244//244
f 260//260 244//244 245//245
f 261//261 245//245 246//246
f 262//262 246//246 247//247
f 263//263 247//247 248//248
f 264//264 248//248 249//249
f 265//265 249//249 250//250
f 266//266 250//250 251//251
f 267//267 251//251 252//252
f 268//268 252//252 253//253
f 269//269 253//253 270//270
f 271//271 255//255 256//256
f 272//272 256//256 257//257
f 273//273 257//257 258//258
f 274//274 258//258 243//243
f 275//275 259//259 260//260
f 276//276 260//260 261//261
f 277//277 261//261 262//262
f 278//278 262//262 263//263
f 279//279 263//263 264//264
f 280//280 264//264 265//265
f 281//281 265//265 266//266
f 282//282 266//266 267//267
f 283//283 267//267 268//268
f 284//284 268//268 269//269
f 285//285 269//269 286//286
f 287//287 288//288 289//289
f 290//290 271//271 272//272
f 291//291 272//272 273//273
f 292//292 273//273 274//274
f 293//293 274//274 259//259
f 294//294 275//275 276//276
f 295//295 276//276 277//277
f 296//296 277//277 278//278
f 297//297 278//278 279//279
f 298//298 279//279 280//280
f 299//299 280//280 281//281
f 300//300 281//281 282//282
f 301//301 282//282 283//283
f 302//302 283//283 284//284
f 303//303 284//284 285//285
f 304//304 285//285 305//305
f 306//306 305//305 307//307
f 308//308 309//309 287//287
f 310//310 287//287 311//311
f 312//312 313//313 290//290
f 314//314 290//290 291//291
f 315//315 291//291 292//292
f 316//316 292//292 293//293
f 317//317 293//293 275//275
f 318//318 294//294 295//295
f 319//319 295//295 296//296
f 320//320 296//296 297//297
f 321//321 297//297 298//298
f 322//322 298//298 299//299
f 323//323 299//299 300//300
f 324//324 300//300 301//301
f 325//325 301//301 302//302
f 326//326 302//302 303//303
f 327//327 303//303 304//304
f 328//328 304//304 306//306
f 329//329 306//306 330//330
f 331//331 330//330 332//332
f 333//333 332//332 334//334
f 335//335 334//334 336//336
f 337//337 336//336 338//338
f 339//339 338//338 308//308
f 340//340 308//308 310//310
f 341//341 310//310 342//342
f 343//343 342//342 344//344
f 345//345 344//344 346//346
f 347//347 346//346 348//348
f 349//349 348//348 350//350
f 351//351 350//350 312//312
f 352//352 312//312 314//314
f 353//353 314//314 315//315
f 354//354 315//315 316//316
f 355//355 316//316 317//317
f 356//356 317//317 294//294
f 357//357 318//318 319//319
f 358//358 319//319 320//320
f 359//359 320//320 321//321
f 360//360 321//321 322//322
f 361//361 322//322 323//323
f 362//362 323//323 324//324
f 363//363 324//324 325//325
f 364//364 325//325 326//326
f 365//365 326//326 327//327
f 366//366 327//327 328//328
f 367//367 328//328 329//329
f 368//368 329//329 331//331
f 369//369 331//331 333//333
f 370//370 333//333 335//335
f 371//371 335//335 337//337
f 372//372 337//337 339//339
f 373//373 339//339 340//340
f 374//374 340//340 341//341
f 375//375 341//341 343//343
f 376//376 343//343 345//345
f 377//377 345//345 347//347
f 378//378 347//347 349//349
f 379//379 349//349 351//351
f 380//380 351//351 352//352
f 381//381 352//352 353//353
f 382//382 353//353 354//354
f 383//383 354//354 355//355
f 384//384 355//355 356//356
f 385//385 356//356 318//318
f 386//386 357//357 358//358
f 387//387 358//358 359//359
f 388//388 359//359 360//360
f 389//389 360//360 361//361
f 390//390 361//361 362//362
f 391//391 362//362 363//363
f 392//392 363//363 364//364
f 393//393 364//364 365//365
f 394//394 365//365 366//366
f 395//395 366//366 367//367
f 396//396 367//367 368//368
f 397//397 368//368 369//369
f 398//398 369//369 370//370
f 399//399 370//370 371//371
f 400//400 371//371 372//372
f 401//401 372//372 373//373
f 402//402 373//373 374//374
f 403//403 374//374 375//375
f 404//404 375//375 376//376
f 405//405 376//376 377//377
f 406//406 377//377 378//378
f 407//407 378//378 379//379
f 408//408 379//379 380//380
f 409//409 380//380 381//381
f 410//410 381//381 382//382
f 411//411 382//382 383//383
f 412//412 383//383 384//384
f 413//413 384//384 385//385
f 414//414 385//385 357//357
f 184//184 185//185 59//59
f 59//59 60//60 184//184
f 183//183 61//61 62//62
f 183//183 184//184 63//63
f 63//63 61//61 183//183
f 415//415 62//62 64//64
f 416//416 206//206 65//65
f 206//206 415//415 66//66
f 66//66 65//65 206//206
f 417//417 416//416 67//67
f 416//416 68//68 67//67
f 418//418 417//417 69//69
f 417//417 70//70 69//69
f 69//69 71//71 418//418
f 288//288 72//72 73//73
f 418//418 74//74 72//72
f 72//72 288//288 418//418
f 311//311 75//75 76//76
f 289//289 77//77 75//75
f 75//75 311//311 289//289
f 342//342 78//78 79//79
f 342//342 311//311 80//80
f 80//80 78//78 342//342
f 346//346 344//344 81//81
f 344//344 79//79 81//81
f 348//348 346//346 82//82
f 346//346 83//83 82//82
f 350//350 348//348 84//84
f 348//348 85//85 84//84
f 84//84 86//86 350//350
f 312//312 87//87 88//88
f 312//312 350//350 89//89
f 89//89 87//87 312//312
f 271//271 290//290 90//90
f 290//290 313//313 91//91
f 91//91 92//92 290//290
f 92//92 90//90 290//290
f 255//255 271//271 93//93
f 271//271 94//94 93//93
f 255//255 95//95 96//96
f 96//96 239//239 255//255
f 255//255 97//97 95//95
f 239//239 98//98 99//99
f 99//99 223//223 239//239
f 208//208 100//100 101//101
f 208//208 223//223 102//102
f 102//102 100//100 208//208
f 223//223 103//103 102//102
f 187//187 188//188 104//104
f 188//188 105//105 104//104
f 207//207 106//106 105//105
f 105//105 188//188 207//207
f 186//186 187//187 107//107
f 187//187 108//108 107//107
f 185//185 186//186 109//109
f 186//186 110//110 109//109
f 336//336 111//111 112//112
f 112//112 338//338 336//336
f 112//112 113//113 338//338
f 308//308 338//338 114//114
f 114//114 115//115 308//308
f 309//309 115//115 116//116
f 287//287 117//117 118//118
f 287//287 309//309 119//119
f 119//119 117//117 287//287
f 288//288 120//120 121//121
f 121//121 418//418 288//288
f 288//288 118//118 120//120
f 417//417 418//418 122//122
f 418//418 123//123 122//122
f 416//416 417//417 124//124
f 417//417 125//125 124//124
f 124//124 126//126 416//416
f 206//206 127//127 128//128
f 206//206 416//416 129//129
f 129//129 127//127 206//206
f 205//205 128//128 130//130
f 181//181 131//131 132//132
f 181//181 205//205 133//133
f 133//133 131//131 181//181
f 179//179 180//180 134//134
f 180//180 132//132 134//134
f 178//178 179//179 135//135
f 179//179 136//136 135//135
f 135//135 137//137 178//178
f 178//178 138//138 139//139
f 139//139 177//177 178//178
f 176//176 140//140 141//141
f 176//176 177//177 142//142
f 142//142 140//140 176//176
f 419//419 141//141 143//143
f 204//204 144//144 145//145
f 204//204 419//419 146//146
f 146//146 144//144 204//204
f 238//238 147//147 148//148
f 148//148 254//254 238//238
f 238//238 145//145 147//147
f 254//254 149//149 150//150
f 150//150 270//270 254//254
f 286//286 270//270 151//151
f 270//270 152//152 151//151
f 151//151 153//153 286//286
f 305//305 154//154 155//155
f 305//305 286//286 156//156
f 156//156 154//154 305//305
f 307//307 155//155 157//157
f 330//330 158//158 159//159
f 330//330 307//307 158//158
f 334//334 160//160 161//161
f 332//332 159//159 160//160
f 160//160 334//334 332//332
f 161//161 162//162 334//334
f 336//336 334//334 163//163
f 334//334 162//162 163//163
f 163//163 111//111 336//336
f 159//159 332//332 330//330
f 157//157 158//158 307//307
f 155//155 307//307 305//305
f 153//153 156//156 286//286
f 150//150 152//152 270//270
f 148//148 149//149 254//254
f 145//145 238//238 204//204
f 143//143 146//146 419//419
f 141//141 419//419 176//176
f 139//139 142//142 177//177
f 137//137 138//138 178//178
f 134//134 136//136 179//179
f 132//132 180//180 181//181
f 130//130 133//133 205//205
f 128//128 205//205 206//206
f 126//126 129//129 416//416
f 122//122 125//125 417//417
f 121//121 123//123 418//418
f 118//118 288//288 287//287
f 116//116 119//119 309//309
f 115//115 309//309 308//308
f 113//113 114//114 338//338
f 109//109 59//59 185//185
f 107//107 110//110 186//186
f 104//104 108//108 187//187
f 106//106 207//207 101//101
f 101//101 207//207 208//208
f 99//99 103//103 223//223
f 96//96 98//98 239//239
f 93//93 97//97 255//255
f 90//90 94//94 271//271
f 91//91 313//313 88//88
f 88//88 313//313 312//312
f 86//86 89//89 350//350
f 82//82 85//85 348//348
f 81//81 83//83 346//346
f 79//79 344//344 342//342
f 76//76 80//80 311//311
f 77//77 289//289 73//73
f 73//73 289//289 288//288
f 71//71 74//74 418//418
f 67//67 70//70 417//417
f 65//65 68//68 416//416
f 64//64 66//66 415//415
f 62//62 415//415 183//183
f 60//60 63//63 184//184
f 420//420 414//414 386//386
f 420//420 413//413 414//414
f 420//420 412//412 413//413
f 420//420 411//411 412//412
f 420//420 410//410 411//411
f 420//420 409//409 410//410
f 420//420 408//408 409//409
f 420//420 407//407 408//408
f 420//420 406//406 407//407
f 420//420 405//405 406//406
f 420//420 404//404 405//405
f 420//420 403//403 404//404
f 420//420 402//402 403//403
f 420//420 401//401 402//402
f 420//420 400//400 401//401
f 420//420 399//399 400//400
f 420//420 398//398 399//399
f 420//420 397//397 398//398
f 420//420 396//396 397//397
f 420//420 395//395 396//396
f 420//420 394//394 395//395
f 420//420 393//393 394//394
f 420//420 392//392 393//393
f 420//420 391//391 392//392
f 420//420 390//390 391//391
f 420//420 389//389 390//390
f 420//420 388//388 389//389
f 420//420 387//387 388//388
f 420//420 386//386 387//387
f 357//357 386//386 414//414
f 385//385 414//414 413//413
f 384//384 413//413 412//412
f 383//383 412//412 411//411
f 382//382 411//411 410//410
f 381//381 410//410 409//409
f 380//380 409//409 408//408
f 379//379 408//408 407//407
f 378//378 407//407 406//406
f 377//377 406//406 405//405
f 376//376 405//405 404//404
f 375//375 404//404 403//403
f 374//374 403//403 402//402
f 373//373 402//402 401//401
f 372//372 401//401 400//400
f 371//371 400//400 399//399
f 370//370 399//399 398//398
f 369//369 398//398 397//397
f 368//368 397//397 396//396
f 367//367 396//396 395//395
f 366//366 395//395 394//394
f 365//365 394//394 393//393
f 364//364 393//393 392//392
f 363//363 392//392 391//391
f 362//362 391//391 390//390
f 361//361 390//390 389//389
f 360//360 389//389 388//388
f 359//359 388//388 387//387
f 358//358 387//387 386//386
f 318//318 357//357 385//385
f 356//356 385//385 384//384
f 355//355 384//384 383//383
f 354//354 383//383 382//382
f 353//353 382//382 381//381
f 352//352 381//381 380//380
f 351//351 380//380 379//379
f 349//349 379//379 378//378
f 347//347 378//378 377//377
f 345//345 377//377 376//376
f 343//343 376//376 375//375
f 341//341 375//375 374//374
f 340//340 374//374 373//373
f 339//339 373//373 372//372
f 337//337 372//372 371//371
f 335//335 371//371 370//370
f 333//333 370//370 369//369
f 331//331 369//369 368//368
f 329//329 368//368 367//367
f 328//328 367//367 366//366
f 327//327 366//366 365//365
f 326//326 365//365 364//364
f 325//325 364//364 363//363
f 324//324 363//363 362//362
f 323//323 362//362 361//361
f 322//322 361//361 360//360
f 321//321 360//360 359//359
f 320//320 359//359 358//358
f 319//319 358//358 357//357
f 294//294 318//318 356//356
f 317//317 356//356 355//355
f 316//316 355//355 354//354
f 315//315 354//354 353//353
f 314//314 353//353 352//352
f 312//312 352//352 351//351
f 350//350 351//351 349//349
f 348//348 349//349 347//347
f 346//346 347//347 345//345
f 344//344 345//345 343//343
f 342//342 343//343 341//341
f 310//310 341//341 340//340
f 308//308 340//340 339//339
f 338//338 339//339 337//337
f 336//336 337//337 335//335
f 334//334 335//335 333//333
f 332//332 333//333 331//331
f 330//330 331//331 329//329
f 306//306 329//329 328//328
f 304//304 328//328 327//327
f 303//303 327//327 326//326
f 302//302 326//326 325//325
f 301//301 325//325 324//324
f 300//300 324//324 323//323
f 299//299 323//323 322//322
f 298//298 322//322 321//321
f 297//297 321//321 320//320
f 296//296 320//320 319//319
f 295//295 319//319 318//318
f 275//275 294//294 317//317
f 293//293 317//317 316//316
f 292//292 316//316 315//315
f 291//291 315//315 314//314
f 290//290 314//314 312//312
f 311//311 342//342 310//310
f 287//287 310//310 308//308
f 307//307 330//330 306//306
f 305//305 306//306 304//304
f 285//285 304//304 303//303
f 284//284 303//303 302//302
f 283//283 302//302 301//301
f 282//282 301//301 300//300
f 281//281 300//300 299//299
f 280//280 299//299 298//298
f 279//279 298//298 297//297
f 278//278 297//297 296//296
f 277//277 296//296 295//295
f 276//276 295//295 294//294
f 259//259 275//275 293//293
f 274//274 293//293 292//292
f 273//273 292//292 291//291
f 272//272 291//291 290//290
f 289//289 311//311 287//287
f 286//286 305//305 285//285
f 269//269 285//285 284//284
f 268//268 284//284 283//283
f 267//267 283//283 282//282
f 266//266 282//282 281//281
f 265//265 281//281 280//280
f 264//264 280//280 279//279
f 263//263 279//279 278//278
f 262//262 278//278 277//277
f 261//261 277//277 276//276
f 260//260 276//276 275//275
f 243//243 259//259 274//274
f 258//258 274//274 273//273
f 257//257 273//273 272//272
f 256//256 272//272 271//271
f 270//270 286//286 269//269
f 253//253 269//269 268//268
f 252//252 268//268 267//267
f 251//251 267//267 266//266
f 250//250 266//266 265//265
f 249//249 265//265 264//264
f 248//248 264//264 263//263
f 247//247 263//263 262//262
f 246//246 262//262 261//261
f 245//245 261//261 260//260
f 244//244 260//260 259//259
f 227//227 243//243 258//258
f 242//242 258//258 257//257
f 241//241 257//257 256//256
f 240//240 256//256 255//255
f 254//254 270//270 253//253
f 237//237 253//253 252//252
f 236//236 252//252 251//251
f 235//235 251//251 250//250
f 234//234 250//250 249//249
f 233//233 249//249 248//248
f 232//232 248//248 247//247
f 231//231 247//247 246//246
f 230//230 246//246 245//245
f 229//229 245//245 244//244
f 228//228 244//244 243//243
f 212//212 227//227 242//242
f 226//226 242//242 241//241
f 225//225 241//241 240//240
f 224//224 240//240 239//239
f 238//238 254//254 237//237
f 222//222 237//237 236//236
f 221//221 236//236 235//235
f 220//220 235//235 234//234
f 219//219 234//234 233//233
f 218//218 233//233 232//232
f 217//217 232//232 231//231
f 216//216 231//231 230//230
f 215//215 230//230 229//229
f 214//214 229//229 228//228
f 213//213 228//228 227//227
f 193//193 212//212 226//226
f 211//211 226//226 225//225
f 210//210 225//225 224//224
f 209//209 224//224 223//223
f 204//204 238//238 222//222
f 203//203 222//222 221//221
f 202//202 221//221 220//220
f 201//201 220//220 219//219
f 200//200 219//219 218//218
f 199//199 218//218 217//217
f 198//198 217//217 216//216
f 197//197 216//216 215//215
f 196//196 215//215 214//214
f 195//195 214//214 213//213
f 194//194 213//213 212//212
f 165//165 193//193 211//211
f 192//192 211//211 210//210
f 191//191 210//210 209//209
f 190//190 209//209 208//208
f 189//189 208//208 207//207
f 183//183 415//415 206//206
f 182//182 206//206 205//205
f 176//176 419//419 204//204
f 175//175 204//204 203//203
f 174//174 203//203 202//202
f 173//173 202//202 201//201
f 172//172 201//201 200//200
f 171//171 200//200 199//199
f 170//170 199//199 198//198
f 169//169 198//198 197//197
f 168//168 197//197 196//196
f 167//167 196//196 195//195
f 166//166 195//195 194//194
f 164//164 194//194 193//193
f 42//42 45//45 165//165
f 40//40 43//43 192//192
f 38//38 41//41 191//191
f 36//36 39//39 190//190
f 34//34 37//37 189//189
f 32//32 35//35 188//188
f 30//30 33//33 187//187
f 28//28 31//31 186//186
f 26//26 29//29 185//185
f 24//24 27//27 184//184
f 22//22 25//25 183//183
f 20//20 23//23 182//182
f 18//18 21//21 181//181
f 16//16 19//19 180//180
f 14//14 17//17 179//179
f 12//12 15//15 178//178
f 10//10 13//13 177//177
f 8//8 11//11 176//176
f 6//6 9//9 175//175
f 4//4 7//7 174//174
f 1//1 5//5 173//173
f 3//3 2//2 172//172
f 56//56 58//58 171//171
f 54//54 57//57 170//170
f 52//52 55//55 169//169
f 50//50 53//53 168//168
f 48//48 51//51 167//167
f 46//46 49//49 166//166
f 44//44 47//47 164//164
