mtllib material.mtl
usemtl material_0
v -0.00000000 0.10000000 -0.00000000
v 0.00000000 0.00000000 0.00000000
v 0.15000000 0.00000000 0.00000000
v 0.15000000 0.10000000 -0.00000000
v -0.00000000 0.10000000 0.02500000
v -0.00000000 0.10000000 -0.00000000
v 0.00000000 0.00000000 0.00000000
v 0.00000000 0.00000000 0.02500000
v 0.00000000 0.00000000 0.00000000
v 0.00000000 0.00000000 0.02500000
v 0.15000000 0.00000000 0.00000000
v 0.15000000 0.00000000 0.02500000
v 0.15000000 0.00000000 0.00000000
v 0.15000000 0.00000000 0.02500000
v 0.15000000 0.10000000 -0.00000000
v 0.15000000 0.10000000 0.02500000
v -0.00000000 0.10000000 0.02500000
v -0.00000000 0.10000000 -0.00000000
v 0.15000000 0.10000000 -0.00000000
v 0.15000000 0.10000000 0.02500000
v -0.00000000 0.10000000 0.02500000
v 0.00000000 0.00000000 0.02500000
v 0.15000000 0.00000000 0.02500000
v 0.15000000 0.10000000 0.02500000
vn -0.00000000 -0.00000000 -1.00000000
vn -0.00000000 -0.00000000 -1.00000000
vn -0.00000000 -0.00000000 -1.00000000
vn -0.00000000 -0.00000000 -1.00000000
vn -1.00000000 -0.00000000 -0.00000000
vn -1.00000000 -0.00000000 -0.00000000
vn -1.00000000 -0.00000000 -0.00000000
vn -1.00000000 -0.00000000 -0.00000000
vn -0.00000000 -1.00000000 -0.00000000
vn -0.00000000 -1.00000000 -0.00000000
vn -0.00000000 -1.00000000 -0.00000000
vn -0.00000000 -1.00000000 -0.00000000
vn 1.00000000 -0.00000000 -0.00000000
vn 1.00000000 -0.00000000 -0.00000000
vn 1.00000000 -0.00000000 -0.00000000
vn 1.00000000 -0.00000000 -0.00000000
vn -0.00000000 1.00000000 -0.00000000
vn -0.00000000 1.00000000 -0.00000000
vn -0.00000000 1.00000000 -0.00000000
vn -0.00000000 1.00000000 -0.00000000
vn -0.00000000 -0.00000000 1.00000000
vn -0.00000000 -0.00000000 1.00000000
vn -0.00000000 -0.00000000 1.00000000
vn -0.00000000 -0.00000000 1.00000000
f 4//4 3//3 2//2
f 2//2 1//1 4//4
f 5//5 6//6 7//7
f 7//7 8//8 5//5
f 10//10 9//9 11//11
f 11//11 12//12 10//10
f 14//14 13//13 15//15
f 15//15 16//16 14//14
f 20//20 19//19 18//18
f 18//18 17//17 20//20
f 24//24 21//21 22//22
f 22//22 23//23 24//24
