# Deterministic rounded-box collider for MuJoCo
# size=[0.15, 0.1, 0.025] radius=0.0005 segments=8
o rounded_book_collision
v 0.000000000 0.000500000 0.000500000
v 0.000000000 0.000500000 0.024500000
v 0.000000000 0.099500000 0.000500000
v 0.000000000 0.099500000 0.024500000
v 0.000005025 0.000429289 0.000500000
v 0.000005025 0.000429289 0.024500000
v 0.000005025 0.000500000 0.000429289
v 0.000005025 0.000500000 0.024570711
v 0.000005025 0.099500000 0.000429289
v 0.000005025 0.099500000 0.024570711
v 0.000005025 0.099570711 0.000500000
v 0.000005025 0.099570711 0.024500000
v 0.000013336 0.000418889 0.000418889
v 0.000013336 0.000418889 0.024581111
v 0.000013336 0.099581111 0.000418889
v 0.000013336 0.099581111 0.024581111
v 0.000025658 0.000341886 0.000500000
v 0.000025658 0.000341886 0.024500000
v 0.000025658 0.000500000 0.000341886
v 0.000025658 0.000500000 0.024658114
v 0.000025658 0.099500000 0.000341886
v 0.000025658 0.099500000 0.024658114
v 0.000025658 0.099658114 0.000500000
v 0.000025658 0.099658114 0.024500000
v 0.000043565 0.000317426 0.000408713
v 0.000043565 0.000317426 0.024591287
v 0.000043565 0.000408713 0.000317426
v 0.000043565 0.000408713 0.024682574
v 0.000043565 0.099591287 0.000317426
v 0.000043565 0.099591287 0.024682574
v 0.000043565 0.099682574 0.000408713
v 0.000043565 0.099682574 0.024591287
v 0.000071254 0.000242752 0.000500000
v 0.000071254 0.000242752 0.024500000
v 0.000071254 0.000500000 0.000242752
v 0.000071254 0.000500000 0.024757248
v 0.000071254 0.099500000 0.000242752
v 0.000071254 0.099500000 0.024757248
v 0.000071254 0.099757248 0.000500000
v 0.000071254 0.099757248 0.024500000
v 0.000091752 0.000295876 0.000295876
v 0.000091752 0.000295876 0.024704124
v 0.000091752 0.099704124 0.000295876
v 0.000091752 0.099704124 0.024704124
v 0.000107768 0.000205826 0.000401942
v 0.000107768 0.000205826 0.024598058
v 0.000107768 0.000401942 0.000205826
v 0.000107768 0.000401942 0.024794174
v 0.000107768 0.099598058 0.000205826
v 0.000107768 0.099598058 0.024794174
v 0.000107768 0.099794174 0.000401942
v 0.000107768 0.099794174 0.024598058
v 0.000146447 0.000146447 0.000500000
v 0.000146447 0.000146447 0.024500000
v 0.000146447 0.000500000 0.000146447
v 0.000146447 0.000500000 0.024853553
v 0.000146447 0.099500000 0.000146447
v 0.000146447 0.099500000 0.024853553
v 0.000146447 0.099853553 0.000500000
v 0.000146447 0.099853553 0.024500000
v 0.000180199 0.000180199 0.000286799
v 0.000180199 0.000180199 0.024713201
v 0.000180199 0.000286799 0.000180199
v 0.000180199 0.000286799 0.024819801
v 0.000180199 0.099713201 0.000180199
v 0.000180199 0.099713201 0.024819801
v 0.000180199 0.099819801 0.000286799
v 0.000180199 0.099819801 0.024713201
v 0.000205826 0.000107768 0.000401942
v 0.000205826 0.000107768 0.024598058
v 0.000205826 0.000401942 0.000107768
v 0.000205826 0.000401942 0.024892232
v 0.000205826 0.099598058 0.000107768
v 0.000205826 0.099598058 0.024892232
v 0.000205826 0.099892232 0.000401942
v 0.000205826 0.099892232 0.024598058
v 0.000242752 0.000071254 0.000500000
v 0.000242752 0.000071254 0.024500000
v 0.000242752 0.000500000 0.000071254
v 0.000242752 0.000500000 0.024928746
v 0.000242752 0.099500000 0.000071254
v 0.000242752 0.099500000 0.024928746
v 0.000242752 0.099928746 0.000500000
v 0.000242752 0.099928746 0.024500000
v 0.000286799 0.000180199 0.000180199
v 0.000286799 0.000180199 0.024819801
v 0.000286799 0.099819801 0.000180199
v 0.000286799 0.099819801 0.024819801
v 0.000295876 0.000091752 0.000295876
v 0.000295876 0.000091752 0.024704124
v 0.000295876 0.000295876 0.000091752
v 0.000295876 0.000295876 0.024908248
v 0.000295876 0.099704124 0.000091752
v 0.000295876 0.099704124 0.024908248
v 0.000295876 0.099908248 0.000295876
v 0.000295876 0.099908248 0.024704124
v 0.000317426 0.000043565 0.000408713
v 0.000317426 0.000043565 0.024591287
v 0.000317426 0.000408713 0.000043565
v 0.000317426 0.000408713 0.024956435
v 0.000317426 0.099591287 0.000043565
v 0.000317426 0.099591287 0.024956435
v 0.000317426 0.099956435 0.000408713
v 0.000317426 0.099956435 0.024591287
v 0.000341886 0.000025658 0.000500000
v 0.000341886 0.000025658 0.024500000
v 0.000341886 0.000500000 0.000025658
v 0.000341886 0.000500000 0.024974342
v 0.000341886 0.099500000 0.000025658
v 0.000341886 0.099500000 0.024974342
v 0.000341886 0.099974342 0.000500000
v 0.000341886 0.099974342 0.024500000
v 0.000401942 0.000107768 0.000205826
v 0.000401942 0.000107768 0.024794174
v 0.000401942 0.000205826 0.000107768
v 0.000401942 0.000205826 0.024892232
v 0.000401942 0.099794174 0.000107768
v 0.000401942 0.099794174 0.024892232
v 0.000401942 0.099892232 0.000205826
v 0.000401942 0.099892232 0.024794174
v 0.000408713 0.000043565 0.000317426
v 0.000408713 0.000043565 0.024682574
v 0.000408713 0.000317426 0.000043565
v 0.000408713 0.000317426 0.024956435
v 0.000408713 0.099682574 0.000043565
v 0.000408713 0.099682574 0.024956435
v 0.000408713 0.099956435 0.000317426
v 0.000408713 0.099956435 0.024682574
v 0.000418889 0.000013336 0.000418889
v 0.000418889 0.000013336 0.024581111
v 0.000418889 0.000418889 0.000013336
v 0.000418889 0.000418889 0.024986664
v 0.000418889 0.099581111 0.000013336
v 0.000418889 0.099581111 0.024986664
v 0.000418889 0.099986664 0.000418889
v 0.000418889 0.099986664 0.024581111
v 0.000429289 0.000005025 0.000500000
v 0.000429289 0.000005025 0.024500000
v 0.000429289 0.000500000 0.000005025
v 0.000429289 0.000500000 0.024994975
v 0.000429289 0.099500000 0.000005025
v 0.000429289 0.099500000 0.024994975
v 0.000429289 0.099994975 0.000500000
v 0.000429289 0.099994975 0.024500000
v 0.000500000 0.000000000 0.000500000
v 0.000500000 0.000000000 0.024500000
v 0.000500000 0.000005025 0.000429289
v 0.000500000 0.000005025 0.024570711
v 0.000500000 0.000025658 0.000341886
v 0.000500000 0.000025658 0.024658114
v 0.000500000 0.000071254 0.000242752
v 0.000500000 0.000071254 0.024757248
v 0.000500000 0.000146447 0.000146447
v 0.000500000 0.000146447 0.024853553
v 0.000500000 0.000242752 0.000071254
v 0.000500000 0.000242752 0.024928746
v 0.000500000 0.000341886 0.000025658
v 0.000500000 0.000341886 0.024974342
v 0.000500000 0.000429289 0.000005025
v 0.000500000 0.000429289 0.024994975
v 0.000500000 0.000500000 0.000000000
v 0.000500000 0.000500000 0.025000000
v 0.000500000 0.099500000 0.000000000
v 0.000500000 0.099500000 0.025000000
v 0.000500000 0.099570711 0.000005025
v 0.000500000 0.099570711 0.024994975
v 0.000500000 0.099658114 0.000025658
v 0.000500000 0.099658114 0.024974342
v 0.000500000 0.099757248 0.000071254
v 0.000500000 0.099757248 0.024928746
v 0.000500000 0.099853553 0.000146447
v 0.000500000 0.099853553 0.024853553
v 0.000500000 0.099928746 0.000242752
v 0.000500000 0.099928746 0.024757248
v 0.000500000 0.099974342 0.000341886
v 0.000500000 0.099974342 0.024658114
v 0.000500000 0.099994975 0.000429289
v 0.000500000 0.099994975 0.024570711
v 0.000500000 0.100000000 0.000500000
v 0.000500000 0.100000000 0.024500000
v 0.149500000 0.000000000 0.000500000
v 0.149500000 0.000000000 0.024500000
v 0.149500000 0.000005025 0.000429289
v 0.149500000 0.000005025 0.024570711
v 0.149500000 0.000025658 0.000341886
v 0.149500000 0.000025658 0.024658114
v 0.149500000 0.000071254 0.000242752
v 0.149500000 0.000071254 0.024757248
v 0.149500000 0.000146447 0.000146447
v 0.149500000 0.000146447 0.024853553
v 0.149500000 0.000242752 0.000071254
v 0.149500000 0.000242752 0.024928746
v 0.149500000 0.000341886 0.000025658
v 0.149500000 0.000341886 0.024974342
v 0.149500000 0.000429289 0.000005025
v 0.149500000 0.000429289 0.024994975
v 0.149500000 0.000500000 0.000000000
v 0.149500000 0.000500000 0.025000000
v 0.149500000 0.099500000 0.000000000
v 0.149500000 0.099500000 0.025000000
v 0.149500000 0.099570711 0.000005025
v 0.149500000 0.099570711 0.024994975
v 0.149500000 0.099658114 0.000025658
v 0.149500000 0.099658114 0.024974342
v 0.149500000 0.099757248 0.000071254
v 0.149500000 0.099757248 0.024928746
v 0.149500000 0.099853553 0.000146447
v 0.149500000 0.099853553 0.024853553
v 0.149500000 0.099928746 0.000242752
v 0.149500000 0.099928746 0.024757248
v 0.149500000 0.099974342 0.000341886
v 0.149500000 0.099974342 0.024658114
v 0.149500000 0.099994975 0.000429289
v 0.149500000 0.099994975 0.024570711
v 0.149500000 0.100000000 0.000500000
v 0.149500000 0.100000000 0.024500000
v 0.149570711 0.000005025 0.000500000
v 0.149570711 0.000005025 0.024500000
v 0.149570711 0.000500000 0.000005025
v 0.149570711 0.000500000 0.024994975
v 0.149570711 0.099500000 0.000005025
v 0.149570711 0.099500000 0.024994975
v 0.149570711 0.099994975 0.000500000
v 0.149570711 0.099994975 0.024500000
v 0.149581111 0.000013336 0.000418889
v 0.149581111 0.000013336 0.024581111
v 0.149581111 0.000418889 0.000013336
v 0.149581111 0.000418889 0.024986664
v 0.149581111 0.099581111 0.000013336
v 0.149581111 0.099581111 0.024986664
v 0.149581111 0.099986664 0.000418889
v 0.149581111 0.099986664 0.024581111
v 0.149591287 0.000043565 0.000317426
v 0.149591287 0.000043565 0.024682574
v 0.149591287 0.000317426 0.000043565
v 0.149591287 0.000317426 0.024956435
v 0.149591287 0.099682574 0.000043565
v 0.149591287 0.099682574 0.024956435
v 0.149591287 0.099956435 0.000317426
v 0.149591287 0.099956435 0.024682574
v 0.149598058 0.000107768 0.000205826
v 0.149598058 0.000107768 0.024794174
v 0.149598058 0.000205826 0.000107768
v 0.149598058 0.000205826 0.024892232
v 0.149598058 0.099794174 0.000107768
v 0.149598058 0.099794174 0.024892232
v 0.149598058 0.099892232 0.000205826
v 0.149598058 0.099892232 0.024794174
v 0.149658114 0.000025658 0.000500000
v 0.149658114 0.000025658 0.024500000
v 0.149658114 0.000500000 0.000025658
v 0.149658114 0.000500000 0.024974342
v 0.149658114 0.099500000 0.000025658
v 0.149658114 0.099500000 0.024974342
v 0.149658114 0.099974342 0.000500000
v 0.149658114 0.099974342 0.024500000
v 0.149682574 0.000043565 0.000408713
v 0.149682574 0.000043565 0.024591287
v 0.149682574 0.000408713 0.000043565
v 0.149682574 0.000408713 0.024956435
v 0.149682574 0.099591287 0.000043565
v 0.149682574 0.099591287 0.024956435
v 0.149682574 0.099956435 0.000408713
v 0.149682574 0.099956435 0.024591287
v 0.149704124 0.000091752 0.000295876
v 0.149704124 0.000091752 0.024704124
v 0.149704124 0.000295876 0.000091752
v 0.149704124 0.000295876 0.024908248
v 0.149704124 0.099704124 0.000091752
v 0.149704124 0.099704124 0.024908248
v 0.149704124 0.099908248 0.000295876
v 0.149704124 0.099908248 0.024704124
v 0.149713201 0.000180199 0.000180199
v 0.149713201 0.000180199 0.024819801
v 0.149713201 0.099819801 0.000180199
v 0.149713201 0.099819801 0.024819801
v 0.149757248 0.000071254 0.000500000
v 0.149757248 0.000071254 0.024500000
v 0.149757248 0.000500000 0.000071254
v 0.149757248 0.000500000 0.024928746
v 0.149757248 0.099500000 0.000071254
v 0.149757248 0.099500000 0.024928746
v 0.149757248 0.099928746 0.000500000
v 0.149757248 0.099928746 0.024500000
v 0.149794174 0.000107768 0.000401942
v 0.149794174 0.000107768 0.024598058
v 0.149794174 0.000401942 0.000107768
v 0.149794174 0.000401942 0.024892232
v 0.149794174 0.099598058 0.000107768
v 0.149794174 0.099598058 0.024892232
v 0.149794174 0.099892232 0.000401942
v 0.149794174 0.099892232 0.024598058
v 0.149819801 0.000180199 0.000286799
v 0.149819801 0.000180199 0.024713201
v 0.149819801 0.000286799 0.000180199
v 0.149819801 0.000286799 0.024819801
v 0.149819801 0.099713201 0.000180199
v 0.149819801 0.099713201 0.024819801
v 0.149819801 0.099819801 0.000286799
v 0.149819801 0.099819801 0.024713201
v 0.149853553 0.000146447 0.000500000
v 0.149853553 0.000146447 0.024500000
v 0.149853553 0.000500000 0.000146447
v 0.149853553 0.000500000 0.024853553
v 0.149853553 0.099500000 0.000146447
v 0.149853553 0.099500000 0.024853553
v 0.149853553 0.099853553 0.000500000
v 0.149853553 0.099853553 0.024500000
v 0.149892232 0.000205826 0.000401942
v 0.149892232 0.000205826 0.024598058
v 0.149892232 0.000401942 0.000205826
v 0.149892232 0.000401942 0.024794174
v 0.149892232 0.099598058 0.000205826
v 0.149892232 0.099598058 0.024794174
v 0.149892232 0.099794174 0.000401942
v 0.149892232 0.099794174 0.024598058
v 0.149908248 0.000295876 0.000295876
v 0.149908248 0.000295876 0.024704124
v 0.149908248 0.099704124 0.000295876
v 0.149908248 0.099704124 0.024704124
v 0.149928746 0.000242752 0.000500000
v 0.149928746 0.000242752 0.024500000
v 0.149928746 0.000500000 0.000242752
v 0.149928746 0.000500000 0.024757248
v 0.149928746 0.099500000 0.000242752
v 0.149928746 0.099500000 0.024757248
v 0.149928746 0.099757248 0.000500000
v 0.149928746 0.099757248 0.024500000
v 0.149956435 0.000317426 0.000408713
v 0.149956435 0.000317426 0.024591287
v 0.149956435 0.000408713 0.000317426
v 0.149956435 0.000408713 0.024682574
v 0.149956435 0.099591287 0.000317426
v 0.149956435 0.099591287 0.024682574
v 0.149956435 0.099682574 0.000408713
v 0.149956435 0.099682574 0.024591287
v 0.149974342 0.000341886 0.000500000
v 0.149974342 0.000341886 0.024500000
v 0.149974342 0.000500000 0.000341886
v 0.149974342 0.000500000 0.024658114
v 0.149974342 0.099500000 0.000341886
v 0.149974342 0.099500000 0.024658114
v 0.149974342 0.099658114 0.000500000
v 0.149974342 0.099658114 0.024500000
v 0.149986664 0.000418889 0.000418889
v 0.149986664 0.000418889 0.024581111
v 0.149986664 0.099581111 0.000418889
v 0.149986664 0.099581111 0.024581111
v 0.149994975 0.000429289 0.000500000
v 0.149994975 0.000429289 0.024500000
v 0.149994975 0.000500000 0.000429289
v 0.149994975 0.000500000 0.024570711
v 0.149994975 0.099500000 0.000429289
v 0.149994975 0.099500000 0.024570711
v 0.149994975 0.099570711 0.000500000
v 0.149994975 0.099570711 0.024500000
v 0.150000000 0.000500000 0.000500000
v 0.150000000 0.000500000 0.024500000
v 0.150000000 0.099500000 0.000500000
v 0.150000000 0.099500000 0.024500000
f 1 2 3
f 1 3 9
f 1 5 6
f 1 6 2
f 1 7 5
f 1 9 7
f 2 4 3
f 2 6 8
f 2 8 10
f 2 10 4
f 3 4 11
f 3 11 9
f 4 10 12
f 4 12 11
f 5 7 13
f 5 13 17
f 5 17 18
f 5 18 6
f 6 14 8
f 6 18 14
f 7 9 19
f 7 19 13
f 8 14 20
f 8 20 10
f 9 11 15
f 9 15 21
f 9 21 19
f 10 16 12
f 10 20 22
f 10 22 16
f 11 12 24
f 11 23 15
f 11 24 23
f 12 16 24
f 13 19 27
f 13 25 17
f 13 27 25
f 14 18 26
f 14 26 28
f 14 28 20
f 15 23 31
f 15 29 21
f 15 31 29
f 16 22 30
f 16 30 32
f 16 32 24
f 17 25 33
f 17 33 18
f 18 33 34
f 18 34 26
f 19 21 37
f 19 35 27
f 19 37 35
f 20 28 36
f 20 36 38
f 20 38 22
f 21 29 37
f 22 38 30
f 23 24 39
f 23 39 31
f 24 32 40
f 24 40 39
f 25 27 41
f 25 41 45
f 25 45 33
f 26 34 46
f 26 42 28
f 26 46 42
f 27 35 47
f 27 47 41
f 28 42 48
f 28 48 36
f 29 31 43
f 29 43 49
f 29 49 37
f 30 38 50
f 30 44 32
f 30 50 44
f 31 39 51
f 31 51 43
f 32 44 52
f 32 52 40
f 33 45 53
f 33 53 34
f 34 53 54
f 34 54 46
f 35 37 55
f 35 55 47
f 36 48 56
f 36 56 38
f 37 49 57
f 37 57 55
f 38 56 58
f 38 58 50
f 39 40 60
f 39 59 51
f 39 60 59
f 40 52 60
f 41 47 63
f 41 61 45
f 41 63 61
f 42 46 62
f 42 62 64
f 42 64 48
f 43 51 67
f 43 65 49
f 43 67 65
f 44 50 66
f 44 66 68
f 44 68 52
f 45 61 69
f 45 69 53
f 46 54 70
f 46 70 62
f 47 55 71
f 47 71 63
f 48 64 72
f 48 72 56
f 49 65 73
f 49 73 57
f 50 58 74
f 50 74 66
f 51 59 75
f 51 75 67
f 52 68 76
f 52 76 60
f 53 69 77
f 53 77 78
f 53 78 54
f 54 78 70
f 55 57 79
f 55 79 71
f 56 72 80
f 56 80 58
f 57 73 81
f 57 81 79
f 58 80 82
f 58 82 74
f 59 60 83
f 59 83 75
f 60 76 84
f 60 84 83
f 61 63 85
f 61 85 89
f 61 89 69
f 62 70 90
f 62 86 64
f 62 90 86
f 63 71 91
f 63 91 85
f 64 86 92
f 64 92 72
f 65 67 87
f 65 87 93
f 65 93 73
f 66 74 94
f 66 88 68
f 66 94 88
f 67 75 95
f 67 95 87
f 68 88 96
f 68 96 76
f 69 89 97
f 69 97 77
f 70 78 98
f 70 98 90
f 71 79 99
f 71 99 91
f 72 92 100
f 72 100 80
f 73 93 101
f 73 101 81
f 74 82 102
f 74 102 94
f 75 83 103
f 75 103 95
f 76 96 104
f 76 104 84
f 77 97 105
f 77 105 78
f 78 105 106
f 78 106 98
f 79 81 109
f 79 107 99
f 79 109 107
f 80 100 108
f 80 108 110
f 80 110 82
f 81 101 109
f 82 110 102
f 83 84 112
f 83 111 103
f 83 112 111
f 84 104 112
f 85 91 115
f 85 113 89
f 85 115 113
f 86 90 114
f 86 114 116
f 86 116 92
f 87 95 119
f 87 117 93
f 87 119 117
f 88 94 118
f 88 118 120
f 88 120 96
f 89 113 121
f 89 121 97
f 90 98 122
f 90 122 114
f 91 99 123
f 91 123 115
f 92 116 124
f 92 124 100
f 93 117 125
f 93 125 101
f 94 102 126
f 94 126 118
f 95 103 127
f 95 127 119
f 96 120 128
f 96 128 104
f 97 121 129
f 97 129 105
f 98 106 130
f 98 130 122
f 99 107 131
f 99 131 123
f 100 124 132
f 100 132 108
f 101 125 133
f 101 133 109
f 102 110 134
f 102 134 126
f 103 111 135
f 103 135 127
f 104 128 136
f 104 136 112
f 105 129 137
f 105 137 106
f 106 137 138
f 106 138 130
f 107 109 141
f 107 139 131
f 107 141 139
f 108 132 140
f 108 140 142
f 108 142 110
f 109 133 141
f 110 142 134
f 111 112 143
f 111 143 135
f 112 136 144
f 112 144 143
f 113 115 153
f 113 151 121
f 113 153 151
f 114 122 152
f 114 152 154
f 114 154 116
f 115 123 155
f 115 155 153
f 116 154 156
f 116 156 124
f 117 119 171
f 117 169 125
f 117 171 169
f 118 126 170
f 118 170 172
f 118 172 120
f 119 127 173
f 119 173 171
f 120 172 174
f 120 174 128
f 121 149 129
f 121 151 149
f 122 130 150
f 122 150 152
f 123 131 157
f 123 157 155
f 124 156 158
f 124 158 132
f 125 167 133
f 125 169 167
f 126 134 168
f 126 168 170
f 127 135 175
f 127 175 173
f 128 174 176
f 128 176 136
f 129 147 137
f 129 149 147
f 130 138 148
f 130 148 150
f 131 139 159
f 131 159 157
f 132 158 160
f 132 160 140
f 133 165 141
f 133 167 165
f 134 142 166
f 134 166 168
f 135 143 177
f 135 177 175
f 136 176 178
f 136 178 144
f 137 145 146
f 137 146 138
f 137 147 145
f 138 146 148
f 139 141 161
f 139 161 159
f 140 160 162
f 140 162 142
f 141 163 161
f 141 165 163
f 142 162 164
f 142 164 166
f 143 144 179
f 143 179 177
f 144 178 180
f 144 180 179
f 145 147 183
f 145 181 146
f 145 183 181
f 146 181 182
f 146 182 148
f 147 149 185
f 147 185 183
f 148 182 184
f 148 184 150
f 149 151 185
f 150 184 186
f 150 186 152
f 151 153 189
f 151 187 185
f 151 189 187
f 152 186 188
f 152 188 190
f 152 190 154
f 153 155 191
f 153 191 189
f 154 190 192
f 154 192 156
f 155 157 191
f 156 192 158
f 157 159 195
f 157 193 191
f 157 195 193
f 158 192 194
f 158 194 196
f 158 196 160
f 159 161 195
f 160 196 198
f 160 198 162
f 161 163 197
f 161 197 195
f 162 198 200
f 162 200 164
f 163 165 199
f 163 199 197
f 164 200 166
f 165 167 203
f 165 201 199
f 165 203 201
f 166 200 202
f 166 202 204
f 166 204 168
f 167 169 205
f 167 205 203
f 168 204 170
f 169 171 205
f 170 204 206
f 170 206 172
f 171 173 207
f 171 207 205
f 172 206 208
f 172 208 210
f 172 210 174
f 173 175 211
f 173 209 207
f 173 211 209
f 174 210 176
f 175 177 213
f 175 213 211
f 176 210 212
f 176 212 214
f 176 214 178
f 177 179 215
f 177 215 213
f 178 214 216
f 178 216 180
f 179 180 215
f 180 216 215
f 181 183 217
f 181 217 218
f 181 218 182
f 182 218 184
f 183 185 225
f 183 225 217
f 184 218 226
f 184 226 186
f 185 187 233
f 185 233 225
f 186 226 234
f 186 234 188
f 187 189 241
f 187 241 233
f 188 234 242
f 188 242 190
f 189 191 243
f 189 243 241
f 190 242 244
f 190 244 192
f 191 193 235
f 191 235 243
f 192 236 194
f 192 244 236
f 193 195 227
f 193 227 235
f 194 228 196
f 194 236 228
f 195 197 219
f 195 219 227
f 196 220 198
f 196 228 220
f 197 199 221
f 197 221 219
f 198 220 200
f 199 201 221
f 200 220 222
f 200 222 202
f 201 203 229
f 201 229 221
f 202 222 230
f 202 230 204
f 203 205 237
f 203 237 229
f 204 230 238
f 204 238 206
f 205 207 245
f 205 245 237
f 206 238 246
f 206 246 208
f 207 209 247
f 207 247 245
f 208 246 248
f 208 248 210
f 209 211 239
f 209 239 247
f 210 240 212
f 210 248 240
f 211 213 231
f 211 231 239
f 212 232 214
f 212 240 232
f 213 215 223
f 213 223 231
f 214 224 216
f 214 232 224
f 215 216 224
f 215 224 223
f 217 225 249
f 217 249 218
f 218 249 250
f 218 250 226
f 219 221 251
f 219 251 227
f 220 228 252
f 220 252 222
f 221 229 253
f 221 253 251
f 222 252 254
f 222 254 230
f 223 224 256
f 223 255 231
f 223 256 255
f 224 232 256
f 225 233 257
f 225 257 249
f 226 250 258
f 226 258 234
f 227 251 259
f 227 259 235
f 228 236 260
f 228 260 252
f 229 237 261
f 229 261 253
f 230 254 262
f 230 262 238
f 231 255 263
f 231 263 239
f 232 240 264
f 232 264 256
f 233 241 265
f 233 265 257
f 234 258 266
f 234 266 242
f 235 259 267
f 235 267 243
f 236 244 268
f 236 268 260
f 237 245 269
f 237 269 261
f 238 262 270
f 238 270 246
f 239 263 271
f 239 271 247
f 240 248 272
f 240 272 264
f 241 243 273
f 241 273 265
f 242 266 274
f 242 274 244
f 243 267 273
f 244 274 268
f 245 247 275
f 245 275 269
f 246 270 276
f 246 276 248
f 247 271 275
f 248 276 272
f 249 257 277
f 249 277 250
f 250 277 278
f 250 278 258
f 251 253 279
f 251 279 259
f 252 260 280
f 252 280 282
f 252 282 254
f 253 261 281
f 253 281 279
f 254 282 262
f 255 256 283
f 255 283 263
f 256 264 284
f 256 284 283
f 257 265 285
f 257 285 277
f 258 278 286
f 258 286 266
f 259 279 287
f 259 287 267
f 260 268 288
f 260 288 280
f 261 269 289
f 261 289 281
f 262 282 290
f 262 290 270
f 263 283 291
f 263 291 271
f 264 272 292
f 264 292 284
f 265 273 293
f 265 293 285
f 266 286 294
f 266 294 274
f 267 287 295
f 267 295 273
f 268 274 296
f 268 296 288
f 269 275 297
f 269 297 289
f 270 290 298
f 270 298 276
f 271 291 299
f 271 299 275
f 272 276 300
f 272 300 292
f 273 295 293
f 274 294 296
f 275 299 297
f 276 298 300
f 277 285 301
f 277 301 302
f 277 302 278
f 278 302 286
f 279 281 305
f 279 303 287
f 279 305 303
f 280 288 304
f 280 304 282
f 281 289 305
f 282 304 306
f 282 306 290
f 283 284 308
f 283 307 291
f 283 308 307
f 284 292 308
f 285 293 309
f 285 309 301
f 286 302 310
f 286 310 294
f 287 303 311
f 287 311 295
f 288 296 312
f 288 312 304
f 289 297 313
f 289 313 305
f 290 306 314
f 290 314 298
f 291 307 315
f 291 315 299
f 292 300 316
f 292 316 308
f 293 295 317
f 293 317 309
f 294 310 318
f 294 318 296
f 295 311 317
f 296 318 312
f 297 299 319
f 297 319 313
f 298 314 320
f 298 320 300
f 299 315 319
f 300 320 316
f 301 309 321
f 301 321 302
f 302 321 322
f 302 322 310
f 303 305 323
f 303 323 311
f 304 312 324
f 304 324 326
f 304 326 306
f 305 313 325
f 305 325 323
f 306 326 314
f 307 308 327
f 307 327 315
f 308 316 328
f 308 328 327
f 309 317 329
f 309 329 321
f 310 322 330
f 310 330 318
f 311 323 331
f 311 331 317
f 312 318 332
f 312 332 324
f 313 319 333
f 313 333 325
f 314 326 334
f 314 334 320
f 315 327 335
f 315 335 319
f 316 320 336
f 316 336 328
f 317 331 329
f 318 330 332
f 319 335 333
f 320 334 336
f 321 329 337
f 321 337 338
f 321 338 322
f 322 338 330
f 323 325 341
f 323 339 331
f 323 341 339
f 324 332 340
f 324 340 326
f 325 333 341
f 326 340 342
f 326 342 334
f 327 328 344
f 327 343 335
f 327 344 343
f 328 336 344
f 329 331 345
f 329 345 337
f 330 338 346
f 330 346 332
f 331 339 345
f 332 346 340
f 333 335 347
f 333 347 341
f 334 342 348
f 334 348 336
f 335 343 347
f 336 348 344
f 337 345 349
f 337 349 338
f 338 349 350
f 338 350 346
f 339 341 351
f 339 351 345
f 340 346 352
f 340 352 342
f 341 347 353
f 341 353 351
f 342 352 354
f 342 354 348
f 343 344 356
f 343 355 347
f 343 356 355
f 344 348 356
f 345 351 349
f 346 350 352
f 347 355 353
f 348 354 356
f 349 351 357
f 349 357 350
f 350 357 358
f 350 358 352
f 351 353 359
f 351 359 357
f 352 358 360
f 352 360 354
f 353 355 359
f 354 360 356
f 355 356 359
f 356 360 359
f 357 359 358
f 358 359 360
