# https://github.com/mikedh/trimesh
v 0.01512731 0.00899892 0.15110000
v 0.01512731 0.00100043 0.15110000
v 0.01512731 0.01008021 0.15104041
v 0.00899918 0.01300782 0.15110000
v 0.00100148 0.00100043 0.15110000
v 0.01512731 -0.00008085 0.15104041
v 0.01512731 0.01011473 0.15098081
v 0.01008248 0.01300782 0.15104041
v 0.00100148 0.01300782 0.15110000
v -0.00008024 0.00100043 0.15104041
v -0.00005324 -0.00005323 0.15102550
v 0.00100148 -0.00008085 0.15104041
v 0.01512731 -0.00063048 0.14999753
v 0.01512731 0.01062982 0.14999753
v 0.01064955 0.01300782 0.14998263
v -0.00008024 0.01300782 0.15104041
v -0.00062983 0.00100043 0.14999753
v -0.00031532 -0.00031424 0.14999753
v 0.00100148 -0.00063048 0.14999753
v 0.01512731 -0.00106962 0.14812036
v 0.01512731 0.01109934 0.14798627
v 0.01113243 0.01300782 0.14798627
v -0.00062983 0.01300782 0.14999753
v -0.00110000 0.00100043 0.14798627
v -0.00054882 -0.00054900 0.14798627
v 0.00100148 -0.00110000 0.14798627
v 0.01512731 -0.00110000 0.14798627
v 0.01512731 0.01109934 0.00201373
v 0.01113243 0.01300782 0.00399519
v -0.00110000 0.01300782 0.14798627
v -0.00110000 0.00100043 0.00201373
v -0.00054882 -0.00054900 0.00201373
v 0.00100148 -0.00110000 0.00201373
v 0.01512731 -0.00110000 0.00201373
v 0.01512731 0.01106896 0.00187964
v 0.01064479 0.01300782 0.00000247
v 0.01113085 0.01300782 0.00199883
v -0.00110000 0.01300782 0.00201373
v -0.00062983 0.00100043 0.00000247
v -0.00031532 -0.00031424 0.00000247
v 0.00100148 -0.00063048 0.00000247
v 0.01512731 -0.00063048 0.00000247
v 0.01512731 0.01062982 0.00000247
v 0.01007613 0.01300782 -0.00104041
v -0.00062983 0.01300782 0.00000247
v -0.00005324 -0.00005323 -0.00102550
v -0.00008183 0.01300782 -0.00104041
v -0.00008024 0.00100043 -0.00104041
v 0.00100148 -0.00008085 -0.00104041
v 0.01512731 -0.00011538 -0.00098081
v 0.01512731 0.01008021 -0.00104041
v 0.00899124 0.01300782 -0.00110000
v 0.00100148 0.00100043 -0.00110000
v 0.00099671 0.01300782 -0.00108510
v 0.00100148 0.01299954 -0.00110000
v 0.01512731 -0.00008085 -0.00104041
v 0.01512731 0.00899892 -0.00110000
v 0.00299336 0.01300782 -0.00110000
v 0.01512731 0.00100043 -0.00110000
f 1 2 6
f 1 6 13
f 1 13 20
f 1 20 27
f 1 27 34
f 1 34 42
f 1 42 50
f 1 50 56
f 1 56 59
f 1 59 57
f 1 57 51
f 1 51 43
f 1 43 35
f 1 35 28
f 1 28 21
f 1 21 14
f 1 14 7
f 1 7 3
f 1 3 4
f 1 4 9
f 1 9 5
f 1 5 2
f 2 5 12
f 2 12 6
f 3 7 8
f 3 8 4
f 4 8 15
f 4 15 22
f 4 22 29
f 4 29 37
f 4 37 36
f 4 36 44
f 4 44 52
f 4 52 58
f 4 58 54
f 4 54 47
f 4 47 45
f 4 45 38
f 4 38 30
f 4 30 23
f 4 23 16
f 4 16 9
f 5 9 16
f 5 16 10
f 5 10 11
f 5 11 12
f 6 12 19
f 6 19 13
f 7 14 8
f 8 14 15
f 10 16 23
f 10 23 17
f 10 17 11
f 11 17 18
f 11 18 19
f 11 19 12
f 13 19 20
f 14 21 15
f 15 21 22
f 17 23 30
f 17 30 24
f 17 24 18
f 18 24 25
f 18 25 26
f 18 26 19
f 19 26 20
f 20 26 27
f 21 28 29
f 21 29 22
f 24 30 38
f 24 38 31
f 24 31 32
f 24 32 25
f 25 32 33
f 25 33 26
f 26 33 34
f 26 34 27
f 28 35 36
f 28 36 37
f 28 37 29
f 31 38 45
f 31 45 39
f 31 39 40
f 31 40 32
f 32 40 33
f 33 40 41
f 33 41 42
f 33 42 34
f 35 43 36
f 36 43 44
f 39 46 40
f 39 45 47
f 39 47 48
f 39 48 46
f 40 46 41
f 41 46 49
f 41 49 50
f 41 50 42
f 43 51 44
f 44 51 52
f 46 48 53
f 46 53 49
f 47 54 55
f 47 55 53
f 47 53 48
f 49 56 50
f 49 53 59
f 49 59 56
f 51 57 52
f 52 57 59
f 52 59 53
f 52 53 55
f 52 55 58
f 54 58 55
