# https://github.com/mikedh/trimesh
v 0.01514552 0.00100061 -0.00110000
v 0.01514552 -0.00008015 -0.00104041
v 0.01514552 0.00899939 -0.00110000
v 0.19898834 0.00100061 -0.00110000
v 0.01514552 -0.00011478 -0.00098081
v 0.19898834 -0.00008015 -0.00104041
v 0.01514552 0.01008015 -0.00104041
v 0.19898834 0.00899939 -0.00110000
v 0.20008059 0.00100061 -0.00104041
v 0.20004418 -0.00005388 -0.00102550
v 0.01514552 -0.00063068 0.00000247
v 0.19898834 -0.00063068 0.00000247
v 0.01514552 0.01063068 0.00000247
v 0.19898834 0.01008015 -0.00104041
v 0.20004418 0.01005388 -0.00102550
v 0.20008059 0.00899939 -0.00104041
v 0.20062671 0.00100061 0.00000247
v 0.20029902 -0.00031541 0.00000247
v 0.01514552 -0.00110000 0.00201373
v 0.19898834 -0.00110000 0.00201373
v 0.01514552 0.01106895 0.00187964
v 0.19898834 0.01063068 0.00000247
v 0.20029902 0.01031541 0.00000247
v 0.20062671 0.00899939 0.00000247
v 0.20108180 0.00100061 0.00201373
v 0.20053568 -0.00054947 0.00201373
v 0.01514552 -0.00110000 0.14798627
v 0.19898834 -0.00110000 0.14798627
v 0.01514552 0.01110000 0.00201373
v 0.19898834 0.01110000 0.00201373
v 0.20053568 0.01054947 0.00201373
v 0.20108180 0.00899939 0.00201373
v 0.20108180 0.00100061 0.14798627
v 0.20053568 -0.00054947 0.14798627
v 0.01514552 -0.00106895 0.14812036
v 0.20029902 -0.00031541 0.14999753
v 0.19898834 -0.00063068 0.14999753
v 0.01514552 0.01110000 0.14798627
v 0.19898834 0.01110000 0.14798627
v 0.20053568 0.01054947 0.14798627
v 0.20108180 0.00899939 0.14798627
v 0.20062671 0.00100061 0.14999753
v 0.01514552 -0.00063068 0.14999753
v 0.20004418 -0.00005388 0.15102550
v 0.19898834 -0.00008015 0.15104041
v 0.01514552 0.01063068 0.14999753
v 0.19898834 0.01063068 0.14999753
v 0.20029902 0.01031541 0.14999753
v 0.20062671 0.00899939 0.14999753
v 0.20008059 0.00100061 0.15104041
v 0.01514552 -0.00008015 0.15104041
v 0.19898834 0.00100061 0.15110000
v 0.01514552 0.01011478 0.15098081
v 0.19898834 0.01008015 0.15104041
v 0.20004418 0.01005388 0.15102550
v 0.20008059 0.00899939 0.15104041
v 0.01514552 0.00100061 0.15110000
v 0.19898834 0.00899939 0.15110000
v 0.01514552 0.01008015 0.15104041
v 0.01514552 0.00899939 0.15110000
f 1 2 5
f 1 5 11
f 1 11 19
f 1 19 27
f 1 27 35
f 1 35 43
f 1 43 51
f 1 51 57
f 1 57 60
f 1 60 59
f 1 59 53
f 1 53 46
f 1 46 38
f 1 38 29
f 1 29 21
f 1 21 13
f 1 13 7
f 1 7 3
f 1 3 8
f 1 8 4
f 1 4 6
f 1 6 2
f 2 6 5
f 3 7 14
f 3 14 8
f 4 8 16
f 4 16 9
f 4 9 10
f 4 10 6
f 5 6 12
f 5 12 11
f 6 10 12
f 7 13 22
f 7 22 14
f 8 14 15
f 8 15 16
f 9 16 24
f 9 24 17
f 9 17 10
f 10 17 18
f 10 18 12
f 11 12 20
f 11 20 19
f 12 18 20
f 13 21 22
f 14 22 15
f 15 23 24
f 15 24 16
f 15 22 23
f 17 24 32
f 17 32 25
f 17 25 18
f 18 26 20
f 18 25 26
f 19 20 28
f 19 28 27
f 20 26 34
f 20 34 28
f 21 29 30
f 21 30 22
f 22 30 23
f 23 30 31
f 23 31 32
f 23 32 24
f 25 32 41
f 25 41 33
f 25 33 34
f 25 34 26
f 27 28 35
f 28 34 36
f 28 36 37
f 28 37 35
f 29 38 39
f 29 39 30
f 30 39 40
f 30 40 31
f 31 40 41
f 31 41 32
f 33 42 36
f 33 36 34
f 33 41 49
f 33 49 42
f 35 37 43
f 36 44 37
f 36 42 44
f 37 44 45
f 37 45 51
f 37 51 43
f 38 46 47
f 38 47 39
f 39 47 48
f 39 48 40
f 40 48 41
f 41 48 49
f 42 50 44
f 42 49 56
f 42 56 50
f 44 52 45
f 44 50 52
f 45 52 57
f 45 57 51
f 46 53 47
f 47 54 55
f 47 55 48
f 47 53 54
f 48 55 49
f 49 55 56
f 50 56 58
f 50 58 52
f 52 58 60
f 52 60 57
f 53 59 54
f 54 58 55
f 54 59 60
f 54 60 58
f 55 58 56
