# https://github.com/mikedh/trimesh
v 0.00299308 0.01300782 -0.00110000
v 0.00899139 0.01300782 -0.00110000
v 0.00099683 0.01300782 -0.00108510
v 0.00100042 0.01500829 -0.00110000
v 0.00899977 0.01500829 -0.00110000
v 0.01007633 0.01300782 -0.00104041
v -0.00008212 0.01300782 -0.00104041
v 0.00100042 0.15899806 -0.00110000
v 0.00899977 0.15899806 -0.00110000
v 0.01007993 0.01500829 -0.00104041
v 0.01064515 0.01300782 0.00000247
v -0.00063058 0.01300782 0.00000247
v -0.00063058 0.15899806 0.00000247
v -0.00007973 0.15899806 -0.00104041
v -0.00005338 0.16004178 -0.00102550
v 0.00100042 0.16007078 -0.00104041
v 0.00899977 0.16007078 -0.00104041
v 0.01005358 0.16004178 -0.00102550
v 0.01007993 0.15899806 -0.00104041
v 0.01063077 0.15899806 0.00000247
v 0.01113133 0.01300782 0.00199883
v -0.00109881 0.01300782 0.00201373
v -0.00031444 0.16030271 0.00000247
v -0.00109881 0.15899806 0.00201373
v 0.00100042 0.16062162 0.00000247
v 0.00899977 0.16062162 0.00000247
v 0.01031464 0.16030271 0.00000247
v 0.01109900 0.15899806 0.00201373
v 0.01113253 0.01300782 0.00399519
v -0.00109881 0.01300782 0.14798627
v -0.00054915 0.16054914 0.00201373
v 0.00100042 0.16110000 0.00201373
v -0.00109881 0.15899806 0.14798627
v 0.00899977 0.16110000 0.00201373
v 0.01054935 0.16054914 0.00201373
v 0.01109900 0.15899806 0.14798627
v 0.01113253 0.01300782 0.14798627
v -0.00063058 0.01300782 0.14999753
v -0.00054915 0.16054914 0.14798627
v 0.00100042 0.16110000 0.14798627
v -0.00063058 0.15899806 0.14999753
v -0.00031444 0.16030271 0.14999753
v 0.00899977 0.16110000 0.14798627
v 0.01054935 0.16054914 0.14798627
v 0.01031464 0.16030271 0.14999753
v 0.01063077 0.15899806 0.14999753
v 0.01064874 0.01300782 0.14998263
v -0.00007973 0.01300782 0.15104041
v 0.00100042 0.16062162 0.14999753
v -0.00005338 0.16004178 0.15102550
v -0.00007973 0.15899806 0.15104041
v 0.00899977 0.16062162 0.14999753
v 0.01005358 0.16004178 0.15102550
v 0.01007993 0.15899806 0.15104041
v 0.01008232 0.01300782 0.15104041
v 0.00100042 0.01300782 0.15110000
v 0.00100042 0.16007078 0.15104041
v 0.00100042 0.15899806 0.15110000
v 0.00899977 0.16007078 0.15104041
v 0.00899977 0.15899806 0.15110000
v 0.00899977 0.01300782 0.15110000
f 1 2 6
f 1 6 11
f 1 11 21
f 1 21 29
f 1 29 37
f 1 37 47
f 1 47 55
f 1 55 61
f 1 61 56
f 1 56 48
f 1 48 38
f 1 38 30
f 1 30 22
f 1 22 12
f 1 12 7
f 1 7 3
f 1 3 4
f 1 4 8
f 1 8 9
f 1 9 5
f 1 5 2
f 2 5 6
f 3 7 4
f 4 7 8
f 5 9 19
f 5 19 10
f 5 10 6
f 6 10 11
f 7 12 13
f 7 13 14
f 7 14 8
f 8 14 15
f 8 15 16
f 8 16 17
f 8 17 9
f 9 17 18
f 9 18 19
f 10 19 11
f 11 19 20
f 11 20 21
f 12 22 24
f 12 24 13
f 13 23 15
f 13 15 14
f 13 24 23
f 15 23 25
f 15 25 16
f 16 25 26
f 16 26 17
f 17 26 18
f 18 26 27
f 18 27 20
f 18 20 19
f 20 27 28
f 20 28 21
f 21 28 29
f 22 30 33
f 22 33 24
f 23 24 31
f 23 31 32
f 23 32 25
f 24 33 39
f 24 39 31
f 25 32 34
f 25 34 26
f 26 34 27
f 27 34 35
f 27 35 28
f 28 35 44
f 28 44 36
f 28 36 37
f 28 37 29
f 30 38 41
f 30 41 33
f 31 39 40
f 31 40 32
f 32 40 43
f 32 43 34
f 33 41 42
f 33 42 39
f 34 43 44
f 34 44 35
f 36 44 45
f 36 45 46
f 36 46 37
f 37 46 47
f 38 48 51
f 38 51 41
f 39 42 40
f 40 42 49
f 40 49 52
f 40 52 43
f 41 50 42
f 41 51 50
f 42 50 49
f 43 52 45
f 43 45 44
f 45 52 53
f 45 53 46
f 46 53 54
f 46 54 47
f 47 54 55
f 48 56 58
f 48 58 51
f 49 50 57
f 49 57 59
f 49 59 52
f 50 51 58
f 50 58 57
f 52 59 53
f 53 59 60
f 53 60 54
f 54 60 55
f 55 60 61
f 56 61 60
f 56 60 58
f 57 58 60
f 57 60 59
