mtllib material.mtl
usemtl material_0
v 0.00000000 0.16000000 -0.00000000
v -0.00000000 0.16000000 0.15000000
v 0.01000000 0.16000000 -0.00000000
v 0.01000000 0.16000000 0.15000000
v 0.00000000 0.16000000 -0.00000000
v 0.00000000 0.00000000 0.00000000
v -0.00000000 0.00000000 0.15000000
v -0.00000000 0.16000000 0.15000000
v 0.00000000 0.00000000 0.00000000
v -0.00000000 0.00000000 0.15000000
v 0.20000000 0.00000000 0.15000000
v 0.20000000 0.00000000 0.00000000
v 0.20000000 0.00000000 0.15000000
v 0.20000000 0.00000000 0.00000000
v 0.20000000 0.01000000 0.15000000
v 0.20000000 0.01000000 -0.00000000
v 0.00000000 0.16000000 -0.00000000
v 0.00000000 0.00000000 0.00000000
v 0.20000000 0.00000000 0.00000000
v 0.20000000 0.01000000 -0.00000000
v 0.01000000 0.01000000 -0.00000000
v 0.01000000 0.16000000 -0.00000000
v -0.00000000 0.00000000 0.15000000
v -0.00000000 0.16000000 0.15000000
v 0.20000000 0.00000000 0.15000000
v 0.20000000 0.01000000 0.15000000
v 0.01000000 0.01000000 0.15000000
v 0.01000000 0.16000000 0.15000000
v 0.20000000 0.01000000 0.15000000
v 0.20000000 0.01000000 -0.00000000
v 0.01000000 0.01000000 -0.00000000
v 0.01000000 0.01000000 0.15000000
v 0.01000000 0.01000000 -0.00000000
v 0.01000000 0.16000000 -0.00000000
v 0.01000000 0.01000000 0.15000000
v 0.01000000 0.16000000 0.15000000
vn -0.00000000 1.00000000 -0.00000000
vn -0.00000000 1.00000000 -0.00000000
vn -0.00000000 1.00000000 -0.00000000
vn -0.00000000 1.00000000 -0.00000000
vn -1.00000000 -0.00000000 -0.00000000
vn -1.00000000 -0.00000000 -0.00000000
vn -1.00000000 -0.00000000 -0.00000000
vn -1.00000000 -0.00000000 -0.00000000
vn -0.00000000 -1.00000000 -0.00000000
vn -0.00000000 -1.00000000 -0.00000000
vn -0.00000000 -1.00000000 -0.00000000
vn -0.00000000 -1.00000000 -0.00000000
vn 1.00000000 -0.00000000 -0.00000000
vn 1.00000000 -0.00000000 -0.00000000
vn 1.00000000 -0.00000000 -0.00000000
vn 1.00000000 -0.00000000 -0.00000000
vn -0.00000000 -0.00000000 -1.00000000
vn -0.00000000 -0.00000000 -1.00000000
vn -0.00000000 -0.00000000 -1.00000000
vn -0.00000000 -0.00000000 -1.00000000
vn -0.00000000 -0.00000000 -1.00000000
vn -0.00000000 -0.00000000 -1.00000000
vn -0.00000000 -0.00000000 1.00000000
vn -0.00000000 -0.00000000 1.00000000
vn -0.00000000 -0.00000000 1.00000000
vn -0.00000000 -0.00000000 1.00000000
vn -0.00000000 -0.00000000 1.00000000
vn -0.00000000 -0.00000000 1.00000000
vn -0.00000000 1.00000000 -0.00000000
vn -0.00000000 1.00000000 -0.00000000
vn -0.00000000 1.00000000 -0.00000000
vn -0.00000000 1.00000000 -0.00000000
vn 1.00000000 -0.00000000 -0.00000000
vn 1.00000000 -0.00000000 -0.00000000
vn 1.00000000 -0.00000000 -0.00000000
vn 1.00000000 -0.00000000 -0.00000000
f 4//4 3//3 1//1
f 1//1 2//2 4//4
f 5//5 6//6 7//7
f 7//7 8//8 5//5
f 11//11 10//10 9//9
f 9//9 12//12 11//11
f 15//15 13//13 14//14
f 14//14 16//16 15//15
f 19//19 18//18 21//21
f 17//17 22//22 21//21
f 21//21 18//18 17//17
f 21//21 20//20 19//19
f 24//24 23//23 27//27
f 25//25 26//26 27//27
f 27//27 23//23 25//25
f 27//27 28//28 24//24
f 29//29 30//30 31//31
f 31//31 32//32 29//29
f 36//36 35//35 33//33
f 33//33 34//34 36//36
